<?xml version="1.0" standalone="no"?>
<!DOCTYPE svg PUBLIC "-//W3C//DTD SVG 20010904//EN"
 "http://www.w3.org/TR/2001/REC-SVG-20010904/DTD/svg10.dtd">
<svg version="1.0" xmlns="http://www.w3.org/2000/svg"
 width="1032.000000pt" height="1032.000000pt" viewBox="0 0 1032.000000 1032.000000"
 preserveAspectRatio="xMidYMid meet">
<metadata>
Created by potrace 1.11, written by Peter Selinger 2001-2013
</metadata>
<g transform="translate(0.000000,1032.000000) scale(0.100000,-0.100000)"
fill="#000000" stroke="none">
<path d="M4940 9621 c-91 -53 -185 -108 -210 -121 -25 -14 -47 -27 -50 -30 -3
-3 -22 -14 -42 -25 -20 -11 -79 -44 -130 -74 -51 -30 -107 -62 -125 -72 -17
-10 -50 -29 -72 -43 -22 -15 -43 -26 -46 -26 -2 0 -33 -17 -67 -38 -35 -21
-70 -41 -78 -45 -8 -4 -33 -18 -55 -32 -66 -42 -83 -45 -186 -43 -55 2 -99 -1
-99 -5 0 -5 -5 -5 -11 -1 -8 5 -843 9 -967 5 -18 -1 -55 -59 -55 -86 0 -7 -3
-13 -6 -12 -3 1 -7 -2 -8 -7 -1 -5 -5 -12 -10 -15 -17 -13 -32 -51 -27 -68 5
-14 4 -15 -4 -4 -8 11 -12 10 -21 -7 -14 -27 -14 -35 1 -26 7 4 8 3 4 -4 -4
-6 -13 -9 -22 -5 -8 3 -14 2 -13 -3 4 -13 -23 -64 -33 -64 -4 0 -8 -9 -8 -20
0 -11 -5 -20 -11 -20 -6 0 -9 -9 -6 -19 3 -14 1 -18 -9 -14 -10 3 -12 0 -9
-10 4 -8 -1 -17 -10 -21 -9 -3 -13 -10 -10 -16 3 -5 1 -10 -4 -10 -6 0 -11 -7
-11 -15 0 -8 -4 -15 -10 -15 -5 0 -10 -9 -10 -19 0 -10 -7 -21 -15 -25 -8 -3
-15 -15 -15 -26 0 -12 -4 -18 -10 -15 -5 3 -10 -1 -10 -9 0 -10 7 -13 21 -11
12 3 18 1 15 -3 -4 -4 -17 -7 -29 -7 -12 0 -22 -4 -22 -10 0 -5 -11 -25 -24
-44 -14 -19 -18 -31 -10 -26 7 5 2 -4 -13 -19 -15 -16 -25 -32 -22 -37 3 -5 0
-9 -5 -9 -6 0 -11 -7 -11 -15 0 -8 -3 -15 -7 -15 -16 0 -31 -48 -19 -60 8 -8
6 -9 -6 -5 -12 5 -18 2 -19 -9 -1 -9 -2 -20 -3 -25 0 -5 -13 -21 -28 -36 -28
-27 -30 -49 -4 -39 8 3 17 1 20 -4 3 -5 -7 -8 -22 -6 -23 3 -31 -3 -47 -34
-11 -20 -24 -40 -30 -44 -5 -4 -6 -8 -2 -8 15 0 -29 -38 -73 -62 -25 -14 -103
-59 -175 -100 -223 -129 -518 -299 -560 -323 -22 -12 -76 -43 -120 -69 -44
-25 -87 -50 -95 -55 -13 -7 -15 -84 -15 -597 l0 -589 -40 -65 c-22 -36 -46
-76 -53 -90 -7 -14 -22 -40 -34 -59 -12 -19 -17 -32 -11 -28 13 8 11 -18 -2
-30 -4 -4 -5 -2 0 6 5 9 3 12 -6 9 -13 -4 -47 -59 -90 -145 -11 -24 -25 -43
-30 -43 -6 0 -8 -4 -4 -9 3 -5 -2 -16 -10 -24 -8 -9 -15 -20 -15 -26 0 -6 -3
-11 -8 -11 -4 0 -17 -21 -30 -47 -27 -57 -44 -86 -55 -94 -5 -3 -9 -10 -9 -15
-1 -5 -12 -26 -24 -46 -13 -21 -24 -42 -24 -48 0 -5 -9 -19 -20 -30 -21 -21
-18 -46 3 -33 7 4 5 -2 -3 -13 -22 -29 -24 -30 -17 -11 12 32 -10 17 -29 -20
-10 -21 -23 -41 -28 -44 -5 -4 -6 -14 -3 -24 4 -9 3 -14 -3 -10 -13 8 -13 -8
0 -23 7 -9 7 -9 -2 -2 -18 15 -28 12 -28 -9 0 -10 -7 -22 -16 -25 -8 -3 -13
-10 -9 -15 3 -5 1 -12 -5 -16 -6 -4 -8 -10 -5 -15 3 -4 -2 -11 -11 -14 -8 -3
-12 -10 -9 -16 3 -5 3 -10 -2 -10 -13 0 -44 -61 -36 -73 3 -7 3 -9 -2 -5 -5 5
-15 -1 -22 -12 -12 -18 -13 -24 -1 -38 11 -15 11 -15 -3 -5 -9 7 -18 10 -21 7
-7 -6 28 -80 42 -89 5 -3 10 -15 10 -26 0 -11 4 -18 9 -15 5 3 14 -8 20 -25 7
-19 15 -28 22 -23 7 4 9 3 5 -4 -8 -13 24 -83 36 -76 4 3 8 -3 9 -13 1 -27 55
-108 69 -105 11 3 11 0 0 -12 -7 -9 -8 -16 -4 -16 5 0 15 -14 22 -30 8 -17 18
-28 23 -25 5 4 6 -1 3 -9 -3 -9 5 -26 20 -41 14 -14 20 -25 14 -25 -5 0 0 -9
13 -21 13 -11 18 -18 12 -14 -8 3 -6 -6 5 -24 9 -17 21 -31 25 -31 5 0 5 -4 2
-10 -3 -5 -1 -10 4 -10 6 0 11 5 11 12 0 6 3 8 6 5 4 -4 1 -13 -6 -22 -7 -8
-8 -15 -3 -15 5 0 19 -20 31 -46 12 -25 27 -42 32 -39 5 3 7 0 5 -7 -3 -7 8
-35 25 -61 16 -26 30 -52 30 -57 0 -6 5 -10 10 -10 6 0 10 -7 10 -15 0 -8 5
-15 10 -15 6 0 9 -6 8 -12 -2 -7 2 -12 9 -11 7 2 10 -4 7 -12 -4 -8 -1 -15 5
-15 6 0 10 -4 9 -9 -5 -15 95 -180 105 -174 5 3 7 0 5 -8 -3 -8 -1 -22 4 -33
8 -15 12 -16 20 -5 7 10 7 8 3 -8 -4 -14 -2 -23 5 -23 6 0 8 -4 5 -10 -3 -5 2
-10 12 -10 14 0 15 -2 4 -9 -9 -6 -10 -11 -2 -15 8 -5 11 -138 11 -455 0 -421
1 -449 18 -464 10 -10 22 -17 26 -17 4 0 48 -24 99 -54 51 -30 119 -69 153
-88 305 -168 484 -276 499 -300 9 -16 13 -28 9 -28 -4 0 2 -8 13 -18 20 -17
38 -51 35 -65 -1 -4 5 -7 13 -7 8 0 14 -3 14 -8 -3 -19 2 -33 11 -27 5 3 7 0
4 -8 -3 -8 1 -21 8 -28 7 -8 21 -31 31 -52 10 -24 22 -35 29 -31 7 4 8 3 4 -5
-4 -6 0 -23 8 -36 9 -14 13 -25 10 -25 -4 0 2 -8 12 -18 11 -9 26 -30 34 -47
8 -16 19 -33 25 -37 5 -4 7 -8 3 -8 -4 0 4 -16 17 -36 14 -20 25 -43 25 -50 0
-8 3 -14 8 -14 4 0 13 -14 21 -31 9 -21 18 -28 29 -24 12 4 12 3 3 -9 -9 -11
-9 -17 2 -27 7 -8 20 -29 28 -47 7 -17 17 -32 20 -32 4 0 9 -10 12 -21 4 -15
11 -20 23 -15 15 6 15 4 3 -10 -11 -14 -11 -18 1 -28 8 -6 16 -18 18 -26 2 -8
11 -22 21 -30 10 -9 16 -20 14 -26 -2 -5 6 -20 17 -32 11 -11 20 -28 20 -36 0
-8 5 -16 11 -18 5 -2 11 -11 13 -21 1 -9 12 -28 24 -42 12 -14 19 -25 17 -25
-3 0 -1 -9 5 -20 6 -11 16 -17 22 -14 6 4 8 3 5 -2 -8 -13 23 -75 34 -68 5 3
6 -3 2 -12 -5 -14 -3 -16 12 -11 15 6 16 5 5 -8 -7 -8 -8 -15 -3 -15 5 0 15
-16 23 -35 7 -19 17 -32 21 -29 4 2 9 -6 11 -18 2 -13 8 -22 14 -21 6 1 11 -8
10 -20 0 -12 4 -21 11 -20 7 2 10 -3 7 -10 -2 -7 4 -22 15 -34 11 -11 17 -23
14 -26 -3 -3 381 -6 853 -6 595 0 860 -3 862 -10 2 -6 9 -11 16 -11 7 0 29
-11 49 -24 19 -13 38 -22 41 -18 3 3 6 0 6 -6 0 -7 4 -12 9 -12 5 0 70 -36
146 -80 76 -44 139 -80 140 -80 2 0 56 -31 121 -69 100 -59 121 -68 138 -59
29 15 498 286 516 298 30 20 85 48 94 48 5 0 12 5 16 12 5 8 236 11 848 13
483 1 842 6 841 11 0 5 4 12 9 15 12 8 47 74 44 84 -1 4 2 7 8 7 9 0 48 66 48
84 0 5 5 12 10 15 6 3 12 13 14 21 2 8 10 22 19 30 14 14 20 25 30 55 1 6 11
19 21 29 10 11 18 24 18 28 0 5 11 26 25 48 14 22 25 47 25 55 0 10 5 13 12 9
7 -4 8 -3 4 4 -10 17 -17 56 -8 48 4 -4 7 -12 7 -17 0 -5 5 -9 10 -8 6 1 9 5
7 10 -1 5 2 9 6 9 13 0 45 77 38 89 -4 7 -1 8 8 5 15 -6 20 5 19 43 0 6 5 10
11 7 16 -6 47 51 34 64 -6 6 -5 12 3 17 8 5 10 4 5 -3 -4 -7 -3 -12 3 -12 6 0
13 11 17 25 3 14 11 25 17 25 6 0 8 3 4 6 -3 4 0 13 8 21 21 21 19 38 -2 22
-16 -11 -16 -11 -5 1 7 8 18 15 25 15 7 1 11 6 9 13 -1 7 3 12 10 12 6 0 9 3
5 6 -3 4 -1 12 6 20 29 33 35 42 30 47 -3 3 4 16 16 28 12 13 21 28 21 35 0 7
6 17 13 21 17 11 39 62 31 74 -3 5 0 8 8 7 7 -2 12 3 10 10 -1 6 2 12 6 12 9
0 29 37 30 54 0 5 5 12 10 15 5 3 19 22 30 42 11 20 26 47 34 60 7 13 17 27
21 30 4 3 9 16 10 27 1 12 7 22 15 22 7 0 11 4 8 8 -10 17 35 54 142 117 62
36 117 65 122 65 4 0 10 4 12 8 2 4 26 21 53 36 88 50 138 78 187 107 27 16
53 29 58 29 6 0 10 5 10 10 0 6 5 10 10 10 6 0 48 23 94 50 46 28 88 50 94 50
26 0 33 71 28 272 -10 351 -10 639 0 646 5 4 24 36 43 72 18 36 38 71 44 78
15 19 47 75 53 94 4 10 11 18 16 18 5 0 6 5 3 10 -5 8 -12 7 -23 -2 -15 -10
-15 -10 -4 2 7 8 18 15 25 15 6 0 18 14 26 30 8 17 18 32 23 33 4 2 8 11 8 19
0 12 -3 13 -13 4 -10 -8 -14 -7 -14 3 0 9 8 13 24 10 15 -3 22 -1 18 6 -3 5
-1 10 4 10 6 0 11 7 11 15 0 8 5 15 11 15 5 0 8 4 5 9 -3 5 1 14 9 21 8 7 12
16 9 21 -3 5 0 9 7 9 7 0 10 3 6 6 -3 3 3 16 14 27 14 15 18 30 14 47 -3 16
-2 20 3 12 11 -17 31 5 27 30 -2 10 2 16 8 15 7 -1 11 6 10 16 0 10 1 16 4 13
7 -6 32 17 27 25 -2 4 3 12 11 19 8 7 15 20 15 30 0 10 7 20 15 23 8 4 12 15
10 28 -2 12 -2 19 2 16 8 -9 33 19 33 37 0 9 5 16 11 16 6 0 9 9 6 19 -3 15
-1 18 11 14 12 -5 14 -1 10 15 -4 12 -2 20 2 17 12 -7 102 154 93 168 -3 6 -1
7 5 3 13 -8 36 40 27 55 -4 5 2 6 11 2 11 -4 15 -2 12 7 -2 8 4 22 14 32 18
18 25 44 10 34 -5 -3 -9 1 -9 9 0 11 4 12 13 4 8 -7 14 -6 19 2 4 6 1 15 -6
20 -8 5 -10 9 -5 9 5 0 3 7 -4 15 -7 8 -16 12 -21 9 -5 -3 -6 2 -3 10 3 8 -4
29 -15 45 -12 16 -21 34 -21 40 0 6 -4 11 -9 11 -5 0 -11 10 -13 23 -2 12 -9
21 -16 20 -6 -2 -11 0 -10 5 2 12 -20 60 -32 67 -5 3 -8 11 -5 16 4 5 1 9 -4
9 -6 0 -11 6 -11 13 0 7 -9 23 -20 35 -12 12 -18 22 -15 22 3 0 1 9 -5 20 -6
11 -16 17 -22 14 -6 -4 -8 -3 -5 3 8 13 -21 73 -38 80 -8 2 -12 10 -9 17 2 6
-7 27 -21 46 -14 19 -25 40 -25 48 0 8 -6 12 -14 9 -10 -4 -13 -1 -9 10 3 8 2
18 -3 22 -5 3 -20 27 -33 54 -13 26 -28 47 -33 47 -4 0 -8 9 -8 20 0 11 -4 20
-10 20 -5 0 -10 7 -10 15 0 8 -8 15 -17 15 -15 0 -16 2 -3 10 13 9 7 14 -12
11 -4 0 -5 6 -2 14 7 18 -7 20 -26 3 -8 -7 -7 -4 2 7 12 15 14 25 7 38 -6 9
-14 15 -19 12 -5 -3 -12 0 -16 6 -4 8 -3 9 4 5 7 -4 12 -2 12 4 0 11 -39 71
-53 81 -5 3 -8 9 -8 13 3 18 0 20 -10 6 -9 -12 -10 -12 -5 4 6 18 -31 96 -45
96 -4 0 -10 13 -14 30 -4 17 -10 30 -15 30 -4 0 -12 13 -18 28 -5 16 -17 36
-27 45 -9 9 -13 17 -9 17 3 0 1 6 -5 14 -9 11 -13 163 -16 581 -2 312 -5 568
-7 569 -2 2 -88 51 -193 111 -104 59 -210 120 -235 135 -25 15 -65 39 -90 52
-25 14 -61 34 -80 45 -19 11 -105 60 -190 108 -154 87 -210 127 -210 151 0 20
-20 27 -38 13 -13 -11 -12 -8 2 9 12 13 14 22 7 22 -7 0 -10 4 -6 9 3 5 -2 16
-10 24 -8 9 -15 19 -15 24 0 5 -6 15 -12 22 -7 6 -14 16 -14 22 -1 5 -2 12 -3
15 0 4 -13 -1 -28 -10 l-28 -17 23 20 c21 18 22 51 0 51 -5 0 -6 5 -3 10 3 6
1 10 -4 10 -6 0 -11 7 -11 16 0 10 -6 14 -14 11 -10 -4 -13 -1 -10 8 7 17 -36
96 -47 89 -5 -3 -6 1 -3 9 3 8 -2 21 -10 30 -9 9 -16 20 -16 26 0 6 -5 11 -11
11 -5 0 -8 4 -5 9 3 5 -1 14 -9 21 -8 7 -12 16 -9 21 3 5 0 9 -5 9 -6 0 -11 7
-11 15 0 11 -7 14 -25 11 -13 -3 -27 -1 -30 4 -3 5 3 7 15 5 11 -2 22 0 25 6
4 5 1 9 -4 9 -6 0 -11 5 -11 11 0 7 -8 18 -17 26 -10 8 -11 11 -3 7 12 -6 11
-3 -3 16 -9 14 -22 35 -29 48 -6 12 -15 22 -20 22 -4 0 -8 8 -8 18 0 22 -17
48 -26 39 -4 -3 -2 -13 4 -20 9 -10 8 -14 -2 -14 -9 0 -13 11 -11 35 1 23 -4
41 -16 53 -11 11 -19 21 -20 24 -5 26 -13 45 -19 45 -4 0 -10 8 -13 18 -3 9
-20 40 -36 67 -17 28 -36 60 -42 73 -7 12 -18 22 -26 23 -50 3 -81 1 -91 -5
-7 -4 -12 -4 -12 1 0 4 -254 7 -565 7 l-565 -2 -85 49 c-47 27 -96 55 -108 62
-12 6 -30 18 -39 26 -10 8 -18 10 -18 6 0 -4 -8 -1 -17 7 -10 9 -38 27 -63 40
-61 34 -85 48 -320 183 -113 65 -221 127 -240 137 -19 11 -60 35 -90 52 -30
18 -75 44 -100 58 l-45 26 -165 -97z m-2094 -573 c5 4 6 3 2 -2 -4 -5 -2 -16
4 -25 10 -12 7 -12 -8 2 -11 9 -23 15 -26 12 -2 -3 -5 2 -5 10 0 10 4 12 12 5
7 -5 16 -6 21 -2z m218 -18 c-6 -6 -10 -3 -10 10 0 13 4 16 10 10 7 -7 7 -13
0 -20z m142 18 c5 4 6 3 2 -2 -4 -5 -2 -16 4 -25 10 -12 7 -12 -8 2 -11 9 -23
15 -26 12 -2 -3 -5 2 -5 10 0 10 4 12 12 5 7 -5 16 -6 21 -2z m99 3 c3 -5 2
-12 -3 -15 -5 -3 -9 1 -9 9 0 17 3 19 12 6z m359 -21 c-6 -6 -10 -3 -10 10 0
13 4 16 10 10 7 -7 7 -13 0 -20z m2777 15 c3 2 5 -13 5 -35 0 -21 -3 -37 -6
-35 -4 2 -6 14 -5 27 1 13 -5 32 -14 43 -14 17 -14 18 0 7 9 -6 18 -10 20 -7z
m251 0 c9 2 25 -7 35 -18 18 -22 18 -22 -2 -6 -11 9 -28 15 -37 14 -9 -2 -23
4 -30 13 -11 15 -11 15 2 6 8 -6 23 -10 32 -9z m96 -10 c-3 -3 -9 2 -12 12 -6
14 -5 15 5 6 7 -7 10 -15 7 -18z m120 0 c-3 -3 -9 2 -12 12 -6 14 -5 15 5 6 7
-7 10 -15 7 -18z m118 -1 c1 -9 0 -13 -4 -10 -3 4 -7 14 -8 22 -1 9 0 13 4 10
3 -4 7 -14 8 -22z m146 11 c9 2 25 -7 35 -18 18 -22 18 -22 -2 -6 -11 9 -28
15 -37 14 -9 -2 -23 4 -30 13 -11 15 -11 15 2 6 8 -6 23 -10 32 -9z m96 -10
c-3 -3 -9 2 -12 12 -6 14 -5 15 5 6 7 -7 10 -15 7 -18z m-4287 -8 c-10 -9 -11
-8 -5 6 3 10 9 15 12 12 3 -3 0 -11 -7 -18z m609 11 c0 -4 -4 -8 -9 -8 -6 0
-12 4 -15 8 -3 5 1 9 9 9 8 0 15 -4 15 -9z m2991 -11 c-10 -9 -11 -8 -5 6 3
10 9 15 12 12 3 -3 0 -11 -7 -18z m249 17 c0 -8 -19 -13 -24 -6 -3 5 1 9 9 9
8 0 15 -2 15 -3z m231 -17 c-10 -9 -11 -8 -5 6 3 10 9 15 12 12 3 -3 0 -11 -7
-18z m249 17 c0 -8 -19 -13 -24 -6 -3 5 1 9 9 9 8 0 15 -2 15 -3z m96 -6 c3
-4 -2 -5 -13 -3 -10 1 -27 -5 -38 -14 -20 -16 -20 -16 -2 6 17 20 39 24 53 11z
m-4036 -2 c0 -2 -8 -10 -17 -17 -16 -13 -17 -12 -4 4 13 16 21 21 21 13z m396
-21 c1 -8 -1 -17 -5 -19 -4 -3 -7 6 -7 19 0 25 8 25 12 0z m3124 21 c0 -2 -8
-10 -17 -17 -16 -13 -17 -12 -4 4 13 16 21 21 21 13z m-3436 -14 c2 -4 -4 -8
-14 -8 -10 0 -16 4 -14 8 3 4 9 8 14 8 5 0 11 -4 14 -8z m107 -9 c13 -16 12
-17 -3 -4 -10 7 -18 15 -18 17 0 8 8 3 21 -13z m173 9 c2 -4 -4 -8 -14 -8 -10
0 -16 4 -14 8 3 4 9 8 14 8 5 0 11 -4 14 -8z m67 -9 c13 -16 12 -17 -3 -4 -10
7 -18 15 -18 17 0 8 8 3 21 -13z m89 3 c-7 -7 -13 -7 -20 0 -6 6 -3 10 10 10
13 0 16 -4 10 -10z m3084 6 c2 -4 -4 -8 -14 -8 -10 0 -16 4 -14 8 3 4 9 8 14
8 5 0 11 -4 14 -8z m160 0 c2 -4 -4 -8 -14 -8 -10 0 -16 4 -14 8 3 4 9 8 14 8
5 0 11 -4 14 -8z m-4329 -32 c-1 -17 -5 -33 -8 -36 -4 -5 -2 51 2 64 5 12 8
-4 6 -28z m95 15 c-7 -8 -17 -15 -23 -15 -6 0 -2 7 9 15 25 19 30 19 14 0z
m367 2 c0 -7 -9 -14 -20 -14 -19 -2 -19 -2 -1 12 11 8 19 15 20 15 0 0 1 -6 1
-13z m62 -14 c2 -1 -5 -1 -16 0 -11 0 -20 7 -20 14 0 10 4 10 16 1 9 -7 18
-13 20 -15z m3375 -3 c-6 -6 -10 -3 -10 10 0 13 4 16 10 10 7 -7 7 -13 0 -20z
m83 17 c0 -7 -9 -14 -20 -14 -19 -2 -19 -2 -1 12 11 8 19 15 20 15 0 0 1 -6 1
-13z m62 -14 c2 -1 -5 -1 -16 0 -11 0 -20 7 -20 14 0 10 4 10 16 1 9 -7 18
-13 20 -15z m418 14 c0 -7 -9 -14 -20 -14 -19 -2 -19 -2 -1 12 11 8 19 15 20
15 0 0 1 -6 1 -13z m62 -14 c2 -1 -5 -1 -16 0 -11 0 -20 7 -20 14 0 10 4 10
16 1 9 -7 18 -13 20 -15z m-4388 0 c13 -16 12 -17 -3 -4 -10 7 -18 15 -18 17
0 8 8 3 21 -13z m86 0 c0 -10 -4 -10 -16 -1 -9 7 -18 13 -20 15 -2 1 5 1 16 0
11 0 20 -7 20 -14z m621 -4 c9 -12 9 -16 -1 -16 -7 0 -14 9 -14 20 -1 11 -1
18 0 16 2 -2 8 -11 15 -20z m196 13 c3 -5 -1 -9 -9 -9 -8 0 -12 4 -9 9 3 4 7
8 9 8 2 0 6 -4 9 -8z m3182 -4 c4 -7 4 -10 -1 -6 -4 4 -15 2 -24 -5 -14 -11
-14 -10 -2 6 16 20 18 21 27 5z m478 4 c2 -4 -5 -9 -17 -9 -17 -2 -19 0 -7 7
18 12 18 12 24 2z m-3934 -27 c-10 -12 -10 -18 1 -32 12 -17 12 -17 -6 -1 -15
14 -16 20 -5 32 7 9 15 16 17 16 3 0 0 -7 -7 -15z m2920 11 c0 -2 -7 -7 -16
-10 -8 -3 -12 -2 -9 4 6 10 25 14 25 6z m31 -13 c13 -16 12 -17 -3 -4 -10 7
-18 15 -18 17 0 8 8 3 21 -13z m-3290 -10 c13 -16 12 -17 -3 -4 -10 7 -18 15
-18 17 0 8 8 3 21 -13z m119 13 c0 -2 -8 -10 -17 -17 -16 -13 -17 -12 -4 4 13
16 21 21 21 13z m3478 -21 c-3 -3 -9 2 -12 12 -6 14 -5 15 5 6 7 -7 10 -15 7
-18z m42 21 c0 -2 -8 -10 -17 -17 -16 -13 -17 -12 -4 4 13 16 21 21 21 13z
m361 -13 c13 -16 12 -17 -3 -4 -10 7 -18 15 -18 17 0 8 8 3 21 -13z m119 13
c0 -2 -8 -10 -17 -17 -16 -13 -17 -12 -4 4 13 16 21 21 21 13z m-4305 -24 c-3
-3 -11 0 -18 7 -9 10 -8 11 6 5 10 -3 15 -9 12 -12z m3520 0 c-3 -3 -11 0 -18
7 -9 10 -8 11 6 5 10 -3 15 -9 12 -12z m345 12 c0 -8 -19 -13 -24 -6 -3 5 1 9
9 9 8 0 15 -2 15 -3z m494 -3 c-8 -8 -34 -10 -38 -2 -3 4 6 7 19 7 14 0 22 -2
19 -5z m-4514 -25 c-7 -7 -13 -7 -20 0 -6 6 -3 10 10 10 13 0 16 -4 10 -10z
m75 -4 c-3 -3 -11 0 -18 7 -9 10 -8 11 6 5 10 -3 15 -9 12 -12z m49 10 c2 -4
-4 -8 -14 -8 -10 0 -16 4 -14 8 3 4 9 8 14 8 5 0 11 -4 14 -8z m153 -15 c1
-11 1 -18 0 -16 -2 2 -8 11 -15 20 -9 12 -9 16 1 16 7 0 14 -9 14 -20z m241 4
c-7 -9 -13 -18 -15 -20 -1 -2 -1 5 0 16 0 11 7 20 14 20 10 0 10 -4 1 -16z
m207 9 c-3 -5 -12 -10 -18 -10 -7 0 -6 4 3 10 19 12 23 12 15 0z m33 -9 c-7
-9 -13 -18 -15 -20 -1 -2 -1 5 0 16 0 11 7 20 14 20 10 0 10 -4 1 -16z m2886
11 c2 -4 -4 -8 -14 -8 -10 0 -16 4 -14 8 3 4 9 8 14 8 5 0 11 -4 14 -8z m153
-15 c1 -11 1 -18 0 -16 -2 2 -8 11 -15 20 -9 12 -9 16 1 16 7 0 14 -9 14 -20z
m241 4 c-7 -9 -13 -18 -15 -20 -1 -2 -1 5 0 16 0 11 7 20 14 20 10 0 10 -4 1
-16z m239 -4 c1 -11 1 -18 0 -16 -2 2 -8 11 -15 20 -9 12 -9 16 1 16 7 0 14
-9 14 -20z m241 3 c-7 -10 -14 -17 -17 -15 -4 4 18 35 25 35 2 0 -1 -9 -8 -20z
m-4362 -16 c1 -9 0 -13 -4 -10 -3 4 -7 14 -8 22 -1 9 0 13 4 10 3 -4 7 -14 8
-22z m252 17 c16 12 16 12 0 -6 -18 -19 -18 -19 -35 0 -17 18 -17 18 0 6 14
-11 20 -11 35 0z m228 -16 c-1 -13 -4 -27 -7 -30 -5 -4 -4 41 0 53 4 10 8 -2
7 -23z m3292 16 c16 12 16 12 0 -6 -18 -19 -18 -19 -35 0 -17 18 -17 18 0 6
14 -11 20 -11 35 0z m480 0 c16 12 16 12 0 -6 -18 -19 -18 -19 -35 0 -17 18
-17 18 0 6 14 -11 20 -11 35 0z m-4451 -19 c0 -10 -6 -19 -13 -19 -9 0 -9 5
-1 19 7 10 13 18 14 18 1 0 1 -8 0 -18z m393 14 c0 -2 -8 -10 -17 -17 -16 -13
-17 -12 -4 4 13 16 21 21 21 13z m101 -13 c13 -16 12 -17 -3 -4 -10 7 -18 15
-18 17 0 8 8 3 21 -13z m346 2 c0 -8 -4 -12 -9 -9 -5 3 -6 10 -3 15 9 13 12
11 12 -6z m3073 11 c0 -2 -8 -10 -17 -17 -16 -13 -17 -12 -4 4 13 16 21 21 21
13z m210 0 c0 -2 -7 -7 -16 -10 -8 -3 -12 -2 -9 4 6 10 25 14 25 6z m270 0 c0
-2 -8 -10 -17 -17 -16 -13 -17 -12 -4 4 13 16 21 21 21 13z m101 -13 c13 -16
12 -17 -3 -4 -10 7 -18 15 -18 17 0 8 8 3 21 -13z m108 14 c-2 -1 -13 -9 -24
-17 -19 -14 -19 -14 -6 3 7 9 18 17 24 17 6 0 8 -1 6 -3z m-4559 -11 c0 -2 -8
-10 -17 -17 -16 -13 -17 -12 -4 4 13 16 21 21 21 13z m721 -13 c13 -16 12 -17
-3 -4 -10 7 -18 15 -18 17 0 8 8 3 21 -13z m-521 -7 c-7 -7 -13 -7 -20 0 -6 6
-3 10 10 10 13 0 16 -4 10 -10z m400 0 c-7 -7 -13 -7 -20 0 -6 6 -3 10 10 10
13 0 16 -4 10 -10z m3120 0 c-7 -7 -13 -7 -20 0 -6 6 -3 10 10 10 13 0 16 -4
10 -10z m400 0 c-7 -7 -13 -7 -20 0 -6 6 -3 10 10 10 13 0 16 -4 10 -10z m80
0 c-7 -7 -13 -7 -20 0 -6 6 -3 10 10 10 13 0 16 -4 10 -10z m413 -9 c4 3 7 1
7 -5 0 -19 -15 -14 -36 11 -19 22 -19 22 2 4 11 -9 24 -14 27 -10z m-4600 -2
c-3 -9 -8 -14 -10 -11 -3 3 -2 9 2 15 9 16 15 13 8 -4z m527 -8 c0 -9 28 -12
100 -10 55 1 100 0 100 -2 0 -2 -30 -21 -67 -42 -38 -20 -69 -41 -71 -45 -2
-4 -10 -8 -18 -8 -8 0 -27 -8 -42 -18 -29 -20 -120 -74 -192 -114 -25 -14 -72
-41 -105 -60 -33 -19 -121 -70 -195 -113 -74 -43 -168 -97 -207 -121 -40 -24
-75 -44 -79 -44 -3 0 -24 -13 -47 -28 -23 -16 -51 -32 -61 -36 -17 -6 -17 -5
-5 11 8 10 16 20 19 23 5 5 40 67 74 135 12 21 27 46 34 53 7 8 11 21 8 29 -3
8 -1 11 4 8 9 -6 14 8 11 28 0 4 4 6 11 5 6 -2 14 6 16 17 4 18 3 18 -14 5
-18 -14 -18 -14 -5 3 7 9 20 17 28 17 10 0 13 6 9 16 -3 8 -2 13 3 10 11 -7
50 66 43 83 -3 8 0 11 7 7 6 -4 14 1 18 11 4 10 11 21 16 25 6 3 10 21 10 40
0 18 2 27 4 21 5 -15 23 0 42 35 13 24 3 29 -18 10 -11 -10 -12 -10 -7 -1 15
28 74 44 143 42 37 -2 74 0 81 4 7 5 12 4 12 -2 0 -6 5 -11 10 -11 6 0 10 8
10 18 0 13 2 14 9 4 6 -10 44 -14 152 -14 126 0 144 2 143 16 -1 9 2 13 7 10
5 -3 9 -11 9 -17z m3554 -9 l374 0 13 -27 c8 -14 20 -32 27 -39 6 -7 12 -20
12 -27 0 -8 5 -17 12 -21 7 -5 8 -3 3 6 -5 8 -4 11 3 7 5 -4 8 -17 4 -29 -4
-17 -2 -20 11 -15 11 4 14 2 11 -7 -3 -8 0 -17 5 -21 6 -3 9 -11 6 -16 -4 -5
1 -9 10 -9 9 0 14 -4 10 -9 -3 -5 0 -15 7 -23 7 -7 14 -20 16 -28 2 -8 9 -22
16 -30 7 -8 18 -28 24 -43 7 -17 17 -25 24 -21 7 4 8 3 4 -4 -10 -17 22 -72
38 -66 8 3 17 1 21 -5 4 -7 0 -8 -11 -4 -12 4 -15 2 -12 -8 3 -8 10 -13 16
-12 6 2 9 -4 5 -12 -3 -9 1 -23 9 -33 8 -9 18 -25 21 -35 5 -13 14 -16 33 -13
15 3 23 2 19 -2 -3 -4 -11 -7 -16 -7 -5 0 -8 -4 -6 -10 1 -5 6 -9 10 -7 5 1 6
-2 2 -7 -8 -14 22 -71 38 -72 7 0 8 -2 1 -5 -6 -3 -82 37 -170 87 -87 51 -172
100 -189 109 -16 9 -104 60 -195 112 -91 52 -185 106 -210 120 -96 54 -246
141 -270 156 -14 9 -28 15 -32 14 -5 -1 -8 3 -8 8 0 6 -6 10 -12 10 -7 0 -26
12 -43 26 -16 14 -24 23 -17 19 7 -4 181 -7 386 -7z m426 8 c0 -2 -6 -9 -14
-15 -11 -9 -16 -9 -22 0 -4 7 -3 9 4 5 6 -3 13 -2 17 4 6 10 15 14 15 6z
m-4643 -29 c1 -11 1 -18 0 -16 -2 2 -8 11 -15 20 -9 12 -9 16 1 16 7 0 14 -9
14 -20z m4714 6 c13 -16 12 -17 -3 -4 -10 7 -18 15 -18 17 0 8 8 3 21 -13z
m-4756 -5 c5 4 5 1 1 -6 -6 -10 -11 -10 -22 -1 -8 6 -14 14 -14 16 0 3 6 0 13
-6 8 -6 18 -7 22 -3z m106 -5 c13 -16 12 -17 -3 -4 -10 7 -18 15 -18 17 0 8 8
3 21 -13z m4589 2 c-7 -8 -17 -15 -23 -15 -6 0 -2 7 9 15 25 19 30 19 14 0z
m-4610 -23 c0 -5 -7 -9 -15 -9 -8 0 -12 4 -9 9 3 4 9 8 15 8 5 0 9 -4 9 -8z
m4678 -12 c-7 -10 -14 -17 -17 -15 -4 4 18 35 25 35 2 0 -1 -9 -8 -20z m52 15
c0 -2 -6 -8 -13 -14 -10 -8 -14 -7 -14 2 0 8 6 14 14 14 7 0 13 -1 13 -2z
m-4790 -9 c0 -2 -8 -10 -17 -17 -16 -13 -17 -12 -4 4 13 16 21 21 21 13z
m4833 -11 c-3 -9 -8 -14 -10 -11 -3 3 -2 9 2 15 9 16 15 13 8 -4z m-4776 -35
c2 -11 -1 -20 -5 -20 -4 0 -8 11 -8 25 0 28 8 24 13 -5z m-152 10 c-3 -5 -12
-10 -18 -10 -7 0 -6 4 3 10 19 12 23 12 15 0z m70 -8 c-3 -3 -11 0 -18 7 -9
10 -8 11 6 5 10 -3 15 -9 12 -12z m4786 -9 c13 -16 12 -17 -3 -4 -10 7 -18 15
-18 17 0 8 8 3 21 -13z m-31 3 c0 -2 -8 -10 -17 -17 -16 -13 -17 -12 -4 4 13
16 21 21 21 13z m45 -35 c3 -5 2 -12 -3 -15 -5 -3 -9 1 -9 9 0 17 3 19 12 6z
m80 -10 c3 -5 2 -12 -3 -15 -5 -3 -9 1 -9 9 0 17 3 19 12 6z m-4955 -5 c0 -2
-8 -10 -17 -17 -16 -13 -17 -12 -4 4 13 16 21 21 21 13z m4918 -25 c-7 -9 -13
-18 -15 -20 -1 -2 -1 5 0 16 0 11 7 20 14 20 10 0 10 -4 1 -16z m-4902 -11 c0
-12 -4 -16 -9 -11 -5 5 -6 14 -3 20 10 15 12 14 12 -9z m4960 0 c0 -12 -4 -16
-9 -11 -5 5 -6 14 -3 20 10 15 12 14 12 -9z m-90 -22 c3 -4 -1 -5 -10 -4 -8 1
-18 5 -22 8 -3 4 1 5 10 4 8 -1 18 -5 22 -8z m151 -5 c0 -9 -4 -10 -14 -2 -7
6 -13 12 -13 14 0 1 6 2 13 2 8 0 14 -6 14 -14z m-5060 -18 c0 -8 -4 -12 -9
-9 -4 3 -8 9 -8 15 0 5 4 9 8 9 5 0 9 -7 9 -15z m89 3 c3 -4 -1 -5 -10 -4 -8
1 -18 5 -22 8 -3 4 1 5 10 4 8 -1 18 -5 22 -8z m4905 -11 c-10 -9 -11 -8 -5 6
3 10 9 15 12 12 3 -3 0 -11 -7 -18z m-41 -1 c0 -2 -8 -10 -17 -17 -16 -13 -17
-12 -4 4 13 16 21 21 21 13z m130 -10 c0 -2 -8 -10 -17 -17 -16 -13 -17 -12
-4 4 13 16 21 21 21 13z m-5101 -9 c-2 -2 -11 -8 -20 -15 -12 -9 -16 -9 -16 1
0 7 9 14 20 14 11 1 18 1 16 0z m32 -34 c13 -16 12 -17 -3 -4 -10 7 -18 15
-18 17 0 8 8 3 21 -13z m4918 3 c9 -11 9 -16 -1 -22 -7 -4 -10 -4 -6 1 4 4 3
14 -3 22 -6 7 -9 13 -6 13 2 0 10 -6 16 -14z m126 -4 c-3 -3 -11 0 -18 7 -9
10 -8 11 6 5 10 -3 15 -9 12 -12z m-57 -17 c-3 -3 -9 2 -12 12 -6 14 -5 15 5
6 7 -7 10 -15 7 -18z m-5003 -3 c-3 -3 -11 0 -18 7 -9 10 -8 11 6 5 10 -3 15
-9 12 -12z m4985 4 c0 -2 -8 -10 -17 -17 -16 -13 -17 -12 -4 4 13 16 21 21 21
13z m80 0 c0 -2 -8 -10 -17 -17 -16 -13 -17 -12 -4 4 13 16 21 21 21 13z
m-5089 -23 c13 -16 12 -17 -3 -4 -10 7 -18 15 -18 17 0 8 8 3 21 -13z m-54
-20 c0 -10 -4 -10 -16 -1 -9 7 -18 13 -20 15 -2 1 5 1 16 0 11 0 20 -7 20 -14z
m63 -18 c-10 -12 -10 -18 1 -32 12 -17 12 -17 -6 -1 -15 14 -16 20 -5 32 7 9
15 16 17 16 3 0 0 -7 -7 -15z m-95 -33 c-17 -15 -18 -15 -6 0 7 9 9 23 5 30
-6 10 -4 11 7 0 11 -10 10 -15 -6 -30z m140 18 c-3 -5 -12 -10 -18 -10 -7 0
-6 4 3 10 19 12 23 12 15 0z m4955 0 c0 -5 -2 -10 -4 -10 -3 0 -8 5 -11 10 -3
6 -1 10 4 10 6 0 11 -4 11 -10z m77 3 c-4 -3 -1 -13 6 -22 11 -14 10 -14 -5
-2 -21 15 -23 31 -6 31 6 0 8 -3 5 -7z m49 -5 c3 -4 -1 -5 -10 -4 -8 1 -18 5
-22 8 -3 4 1 5 10 4 8 -1 18 -5 22 -8z m-5251 -26 c-3 -3 -11 0 -18 7 -9 10
-8 11 6 5 10 -3 15 -9 12 -12z m5262 -5 c0 -7 -9 -14 -20 -14 -19 -2 -19 -2
-1 12 11 8 19 15 20 15 0 0 1 -6 1 -13z m64 -30 c-6 -8 -9 -16 -6 -19 3 -3 -3
-11 -12 -19 -16 -13 -17 -12 -4 4 7 9 10 17 6 17 -4 0 -2 7 5 15 7 8 15 15 17
15 3 0 0 -6 -6 -13z m-68 -12 c-3 -9 -8 -14 -10 -11 -3 3 -2 9 2 15 9 16 15
13 8 -4z m-5213 -9 c0 -2 -8 -10 -17 -17 -16 -13 -17 -12 -4 4 13 16 21 21 21
13z m5160 -16 c0 -4 -7 -7 -15 -6 -23 3 -26 12 -5 13 11 1 20 -2 20 -7z
m-5219 -17 c13 -16 12 -17 -3 -4 -10 7 -18 15 -18 17 0 8 8 3 21 -13z m69 2
c-7 -8 -17 -15 -23 -15 -6 0 -2 7 9 15 25 19 30 19 14 0z m5211 -2 c13 -16 12
-17 -3 -4 -10 7 -18 15 -18 17 0 8 8 3 21 -13z m118 4 c8 -10 7 -14 -2 -14 -8
0 -14 6 -14 14 0 7 1 13 2 13 2 0 8 -6 14 -13z m-5303 -33 c1 -9 0 -13 -4 -10
-3 4 -7 14 -8 22 -1 9 0 13 4 10 3 -4 7 -14 8 -22z m5245 9 c13 -16 12 -17 -3
-4 -10 7 -18 15 -18 17 0 8 8 3 21 -13z m-5307 -33 c-6 -6 -10 -3 -10 10 0 13
4 16 10 10 7 -7 7 -13 0 -20z m-104 16 c0 -2 -8 -10 -17 -17 -16 -13 -17 -12
-4 4 13 16 21 21 21 13z m66 -8 c3 -4 -1 -5 -10 -4 -8 1 -18 5 -22 8 -3 4 1 5
10 4 8 -1 18 -5 22 -8z m5324 3 c0 -6 -4 -12 -8 -15 -5 -3 -9 1 -9 9 0 8 4 15
9 15 4 0 8 -4 8 -9z m-5320 -25 c0 -2 -8 -10 -17 -17 -16 -13 -17 -12 -4 4 13
16 21 21 21 13z m-102 -27 c9 -12 9 -16 -1 -16 -7 0 -14 9 -14 20 -1 11 -1 18
0 16 2 -2 8 -11 15 -20z m53 4 c13 -17 13 -17 -6 -3 -11 8 -22 16 -24 17 -2 2
0 3 6 3 6 0 17 -8 24 -17z m123 8 c-9 -9 -34 -9 -34 -1 0 5 9 8 20 7 10 -1 17
-3 14 -6z m5283 -8 c0 -10 -4 -10 -16 -1 -9 7 -18 13 -20 15 -2 1 5 1 16 0 11
0 20 -7 20 -14z m63 2 c0 -2 -9 -3 -19 -2 -11 0 -18 5 -15 9 4 6 34 0 34 -7z
m-110 -8 c0 -2 -9 -12 -19 -21 -14 -13 -21 -14 -27 -5 -4 7 -3 10 3 6 6 -4 16
0 23 8 12 14 20 19 20 12z m-5278 -43 c-9 -16 -10 -14 -9 8 1 15 6 23 11 18 4
-4 4 -16 -2 -26z m5321 23 c4 3 7 1 7 -5 0 -17 -16 -15 -31 6 -12 15 -12 16 2
5 9 -7 19 -10 22 -6z m41 -17 c-6 -6 -10 -3 -10 10 0 13 4 16 10 10 7 -7 7
-13 0 -20z m37 3 c13 -16 12 -17 -3 -4 -10 7 -18 15 -18 17 0 8 8 3 21 -13z
m-5533 -22 c-7 -9 -13 -18 -15 -20 -1 -2 -1 5 0 16 0 11 7 20 14 20 10 0 10
-4 1 -16z m5441 -15 c-3 -3 -11 5 -18 17 -13 21 -12 21 5 5 10 -10 16 -20 13
-22z m-5382 11 c0 -7 -9 -14 -20 -14 -19 -2 -19 -2 -1 12 11 8 19 15 20 15 0
0 1 -6 1 -13z m5480 -14 c0 -10 -4 -10 -16 -1 -9 7 -18 13 -20 15 -2 1 5 1 16
0 11 0 20 -7 20 -14z m-5573 -11 c3 -5 -1 -9 -9 -9 -8 0 -15 4 -15 9 0 4 4 8
9 8 6 0 12 -4 15 -8z m57 -19 c13 -16 12 -17 -3 -4 -10 7 -18 15 -18 17 0 8 8
3 21 -13z m5576 4 c0 -7 -11 -13 -23 -13 -12 0 -20 4 -18 8 3 5 9 6 14 3 5 -3
11 -1 15 5 8 13 12 13 12 -3z m-29 -36 c16 12 16 12 0 -6 -18 -19 -18 -19 -35
0 -17 18 -17 18 0 6 14 -11 20 -11 35 0z m-5651 -38 c0 -9 -4 -10 -14 -2 -7 6
-13 12 -13 14 0 1 6 2 13 2 8 0 14 -6 14 -14z m-40 -8 c0 -8 -4 -15 -9 -15
-10 0 -11 14 -1 23 9 10 10 9 10 -8z m6863 -1846 c0 -5 -4 -9 -8 -9 -5 0 -9 7
-9 15 0 8 4 12 9 9 4 -3 8 -9 8 -15z m-7963 -44 c0 -8 -4 -12 -9 -9 -5 3 -6
10 -3 15 9 13 12 11 12 -6z m8003 -19 c0 -2 -6 -9 -14 -15 -11 -9 -16 -9 -22
0 -4 7 -3 9 4 5 6 -3 13 -2 17 4 6 10 15 14 15 6z m-8025 -34 c-3 -3 3 -15 12
-26 14 -15 14 -18 2 -8 -9 6 -20 8 -25 4 -5 -4 -6 -3 -2 2 4 5 3 14 -2 21 -7
8 -5 12 5 12 8 0 13 -3 10 -5z m8002 -67 c0 -8 -4 -12 -9 -9 -5 3 -6 10 -3 15
9 13 12 11 12 -6z m-8060 -20 c0 -8 -4 -12 -9 -9 -5 3 -6 10 -3 15 9 13 12 11
12 -6z m53 -10 c-7 -9 -15 -13 -18 -10 -3 3 -15 -3 -26 -12 -21 -18 -21 -18
-2 4 10 13 22 20 27 18 4 -3 10 -1 14 5 3 5 9 10 12 10 3 0 0 -7 -7 -15z
m8048 -35 c-7 -10 -14 -17 -17 -15 -4 4 18 35 25 35 2 0 -1 -9 -8 -20z m-8019
-3 c8 -10 7 -14 -2 -14 -8 0 -14 6 -14 14 0 7 1 13 2 13 2 0 8 -6 14 -13z
m-33 -9 c5 -7 3 -8 -5 -4 -7 5 -22 0 -34 -11 l-22 -18 19 23 c21 25 32 27 42
10z m7985 -11 c-10 -9 -11 -8 -5 6 3 10 9 15 12 12 3 -3 0 -11 -7 -18z m150
-4 c13 -16 12 -17 -3 -4 -10 7 -18 15 -18 17 0 8 8 3 21 -13z m-8102 -16 c8
-10 7 -14 -2 -14 -8 0 -14 6 -14 14 0 7 1 13 2 13 2 0 8 -6 14 -13z m-141 -18
c9 -12 9 -16 -1 -16 -7 0 -14 9 -14 20 -1 11 -1 18 0 16 2 -2 8 -11 15 -20z
m8242 7 c0 -2 -8 -10 -17 -17 -16 -13 -17 -12 -4 4 13 16 21 21 21 13z m-120
-20 c-7 -7 -13 -7 -20 0 -6 6 -3 10 10 10 13 0 16 -4 10 -10z m53 -11 c-3 -9
-8 -14 -10 -11 -3 3 -2 9 2 15 9 16 15 13 8 -4z m-52 -22 c13 -16 12 -17 -3
-4 -10 7 -18 15 -18 17 0 8 8 3 21 -13z m-8026 -15 c5 4 5 1 1 -6 -6 -10 -11
-10 -22 -1 -8 6 -14 14 -14 16 0 3 6 0 13 -6 8 -6 18 -7 22 -3z m8205 8 c0 -2
-8 -10 -17 -17 -16 -13 -17 -12 -4 4 13 16 21 21 21 13z m-214 -14 c-7 -12 31
-72 46 -72 6 0 9 -3 5 -6 -8 -9 21 -64 34 -64 6 0 8 -4 5 -9 -3 -5 5 -24 17
-42 13 -19 26 -42 30 -52 4 -11 12 -15 18 -11 7 4 9 3 6 -3 -7 -11 14 -63 26
-63 4 0 7 -7 7 -15 0 -8 5 -15 11 -15 5 0 8 -4 4 -9 -3 -5 -1 -12 5 -16 6 -4
7 -11 4 -17 -4 -6 -2 -8 4 -4 10 6 30 -35 21 -42 -2 -2 4 -8 14 -13 9 -6 17
-15 17 -22 0 -7 9 -23 20 -37 11 -14 20 -31 20 -37 0 -7 8 -22 17 -33 14 -15
20 -17 32 -7 12 10 12 9 0 -11 -9 -15 -10 -25 -4 -30 6 -4 17 -20 25 -37 8
-16 17 -32 20 -35 3 -3 14 -23 26 -45 33 -64 48 -90 58 -97 11 -8 -12 -68 -27
-68 -5 0 -2 -10 9 -22 10 -13 12 -17 4 -10 -16 13 -31 16 -29 5 2 -16 -14 -53
-23 -53 -6 0 -8 -7 -5 -14 4 -11 1 -13 -11 -9 -9 3 -14 3 -10 -1 6 -7 -22 -66
-61 -126 -35 -54 -41 -66 -52 -90 -6 -14 -10 -26 -9 -28 0 -2 -12 -19 -37 -46
-7 -8 -9 -16 -6 -20 4 -3 1 -6 -5 -6 -7 0 -12 -5 -12 -11 0 -6 -9 -23 -20 -39
-11 -15 -17 -30 -13 -34 3 -3 1 -6 -5 -6 -7 0 -12 -6 -12 -13 0 -7 -9 -23 -20
-35 -12 -12 -18 -22 -14 -22 4 0 0 -8 -9 -18 -13 -15 -14 -21 -4 -31 9 -9 9
-12 0 -9 -14 4 -65 -61 -57 -73 3 -5 0 -9 -6 -9 -7 0 -10 -7 -7 -14 4 -10 1
-13 -7 -10 -16 6 -17 -25 -2 -46 10 -13 9 -13 -6 -1 -12 9 -18 10 -18 2 0 -6
-4 -11 -9 -11 -6 0 -10 125 -11 318 0 174 -3 561 -5 860 -2 349 0 542 6 542 6
0 8 -4 5 -8z m151 -10 c0 -10 -6 -19 -13 -19 -9 0 -9 5 -1 19 7 10 13 18 14
18 1 0 1 -8 0 -18z m-8277 -33 c0 -5 -5 -9 -12 -9 -6 0 -8 3 -5 7 4 3 1 13 -6
22 -11 14 -10 14 6 2 9 -7 17 -17 17 -22z m78 11 c-7 -10 -14 -17 -17 -15 -4
4 18 35 25 35 2 0 -1 -9 -8 -20z m119 -837 c2 -538 0 -843 -6 -834 -5 8 -17
16 -26 17 -9 1 -20 6 -23 10 -4 4 1 4 11 1 11 -4 17 -1 17 9 0 10 -6 14 -14
11 -10 -4 -13 -1 -9 9 3 7 -1 14 -8 14 -7 0 -10 3 -6 6 7 8 -49 114 -69 130
-8 6 -11 14 -7 17 3 4 1 7 -6 7 -7 0 -9 5 -6 10 3 6 1 10 -5 10 -6 0 -8 5 -5
10 3 6 3 10 -2 10 -9 0 -39 61 -35 73 1 4 -4 7 -12 7 -8 0 -17 12 -21 27 -6
27 -43 85 -57 91 -5 2 -6 8 -2 13 3 5 0 9 -5 9 -6 0 -11 -5 -11 -12 0 -6 -3
-8 -6 -5 -4 4 -1 13 6 22 7 8 8 15 3 15 -5 0 -15 16 -23 35 -7 19 -17 32 -22
29 -4 -3 -8 7 -8 21 0 19 -4 26 -14 22 -9 -4 -13 0 -12 11 4 23 -24 64 -39 58
-6 -2 -12 2 -12 10 0 7 5 11 10 7 14 -9 -14 40 -32 55 -9 8 -10 11 -4 7 9 -4
11 -1 7 10 -4 11 -13 14 -28 9 -21 -6 -21 -6 -1 10 11 8 15 16 9 16 -6 0 -16
12 -22 26 -7 14 -9 23 -5 21 8 -5 33 17 34 30 3 19 14 39 28 49 20 15 7 48
-17 39 -13 -5 -14 -4 -5 6 10 10 15 9 28 -1 13 -11 17 -7 30 24 8 20 20 36 27
36 6 0 3 10 -8 22 -13 16 -14 19 -3 10 15 -11 20 -8 38 21 26 43 26 47 0 42
-12 -3 -19 -1 -15 2 4 4 14 8 22 9 38 6 47 14 33 30 -10 12 -10 15 2 12 8 -2
13 4 13 14 -1 10 2 16 6 13 5 -3 11 4 15 15 3 11 11 20 16 20 6 0 7 5 4 10 -3
6 -3 10 2 10 4 0 13 10 19 23 30 62 77 143 88 152 7 6 12 18 10 28 -1 9 1 17
6 17 9 0 58 73 62 92 2 7 9 19 16 26 6 7 12 20 12 28 0 8 5 14 10 14 6 0 10
10 10 22 0 12 3 18 6 15 4 -4 8 -388 11 -854z m-57 843 c0 -2 -6 -9 -14 -15
-11 -9 -16 -9 -22 0 -4 7 -3 9 4 5 6 -3 13 -2 17 4 6 10 15 14 15 6z m8096
-11 c-1 -8 -5 -17 -8 -21 -5 -4 -4 16 1 34 3 9 9 -1 7 -13z m-8201 -3 c-3 -3
0 -11 6 -19 17 -20 5 -16 -14 5 -15 16 -15 19 -2 19 8 0 13 -3 10 -5z m-71
-20 c3 -5 -1 -9 -9 -9 -8 0 -12 4 -9 9 3 4 7 8 9 8 2 0 6 -4 9 -8z m8393 -7
c0 -8 -4 -12 -9 -9 -5 3 -6 10 -3 15 9 13 12 11 12 -6z m-8272 -15 c-3 -5 -12
-10 -18 -10 -7 0 -6 4 3 10 19 12 23 12 15 0z m8166 -7 c13 -16 12 -17 -3 -4
-15 11 -21 11 -35 0 -16 -13 -17 -12 -4 4 7 9 17 17 21 17 4 0 14 -8 21 -17z
m-8255 -8 c-1 -8 -5 -17 -8 -21 -5 -4 -4 16 1 34 3 9 9 -1 7 -13z m124 11 c0
-2 -8 -10 -17 -17 -16 -13 -17 -12 -4 4 13 16 21 21 21 13z m-184 -31 c-1 -8
-5 -17 -8 -21 -5 -4 -4 16 1 34 3 9 9 -1 7 -13z m8404 11 c0 -2 -8 -10 -17
-17 -16 -13 -17 -12 -4 4 13 16 21 21 21 13z m52 -11 c3 0 9 -3 13 -7 4 -3 0
-5 -9 -4 -9 1 -22 8 -29 16 -10 10 -9 11 3 4 8 -5 18 -9 22 -9z m-141 -18
c-10 -9 -11 -8 -5 6 3 10 9 15 12 12 3 -3 0 -11 -7 -18z m-8211 -11 c0 -2 -6
-9 -14 -15 -11 -9 -16 -9 -22 0 -4 7 -3 9 4 5 6 -3 13 -2 17 4 6 10 15 14 15
6z m8240 0 c0 -2 -6 -9 -14 -15 -11 -9 -16 -9 -22 0 -4 7 -3 9 4 5 6 -3 13 -2
17 4 6 10 15 14 15 6z m159 -23 c2 -1 -5 -1 -16 0 -11 0 -20 7 -20 14 0 10 4
10 16 1 9 -7 18 -13 20 -15z m-8462 0 c0 -10 -4 -10 -16 -1 -9 7 -18 13 -20
15 -2 1 5 1 16 0 11 0 20 -7 20 -14z m-59 -23 c-7 -10 -14 -17 -17 -15 -4 4
18 35 25 35 2 0 -1 -9 -8 -20z m157 2 c-3 -3 -11 0 -18 7 -9 10 -8 11 6 5 10
-3 15 -9 12 -12z m8215 14 c0 -2 -8 -10 -17 -17 -16 -13 -17 -12 -4 4 13 16
21 21 21 13z m105 -5 c3 -5 2 -12 -3 -15 -5 -3 -9 1 -9 9 0 17 3 19 12 6z
m-8441 -20 c3 -5 -2 -15 -12 -22 -15 -12 -16 -12 -5 2 7 9 10 19 6 22 -3 4 -4
7 0 7 3 0 8 -4 11 -9z m8377 -8 c12 -16 12 -17 -2 -6 -9 7 -20 9 -24 5 -5 -4
-5 -1 -1 6 9 16 11 15 27 -5z m-8430 -30 c13 -16 12 -17 -3 -4 -17 13 -22 21
-14 21 2 0 10 -8 17 -17z m8412 3 c3 3 4 -1 3 -10 -1 -8 -5 -18 -9 -21 -4 -3
-5 -2 -2 2 3 3 -3 16 -12 27 -14 15 -14 18 -2 8 9 -6 18 -9 22 -6z m-8443 0
c0 -2 -8 -10 -17 -17 -16 -13 -17 -12 -4 4 13 16 21 21 21 13z m170 -8 c0 -6
-3 -8 -7 -5 -3 4 -11 2 -18 -3 -8 -7 -12 -6 -12 3 0 7 9 14 19 14 10 1 18 -3
18 -9z m8317 -6 c0 -10 -6 -19 -13 -19 -9 0 -9 5 -1 19 7 10 13 18 14 18 1 0
1 -8 0 -18z m-8396 -9 c13 -16 12 -17 -3 -4 -17 13 -22 21 -14 21 2 0 10 -8
17 -17z m8439 3 c0 -2 -7 -7 -16 -10 -8 -3 -12 -2 -9 4 6 10 25 14 25 6z m25
-43 c-18 -17 -18 -17 -6 0 11 14 11 20 0 35 -12 16 -12 16 6 0 19 -18 19 -18
0 -35z m-8561 18 c-3 -4 -7 -4 -9 -1 -1 3 -13 -4 -26 -15 -13 -11 -18 -13 -11
-4 6 9 10 18 7 20 -2 3 7 5 20 5 13 0 22 -2 19 -5z m76 0 c0 -6 -4 -12 -8 -15
-5 -3 -9 1 -9 9 0 8 4 15 9 15 4 0 8 -4 8 -9z m8416 -42 c0 -15 -3 -26 -8 -23
-5 3 -6 10 -2 15 3 5 1 16 -5 23 -8 9 -7 13 2 13 8 0 13 -12 13 -28z m164 18
c0 -2 -8 -11 -18 -20 -15 -14 -19 -15 -19 -2 0 8 4 12 8 9 4 -2 10 0 14 6 6
10 15 14 15 7z m-8543 -24 c0 -10 -4 -10 -16 -1 -9 7 -18 13 -20 15 -2 1 5 1
16 0 11 0 20 -7 20 -14z m8464 -10 c13 -16 12 -17 -3 -4 -10 7 -18 15 -18 17
0 8 8 3 21 -13z m-8610 -10 c13 -16 12 -17 -3 -4 -10 7 -18 15 -18 17 0 8 8 3
21 -13z m84 -3 c-20 -22 -35 -26 -35 -9 0 5 4 8 9 5 5 -3 14 1 21 9 7 8 15 15
18 15 3 0 -3 -9 -13 -20z m-102 -20 c10 -12 9 -12 -4 -2 -9 6 -18 9 -21 6 -3
-3 -9 -1 -12 4 -9 15 22 8 37 -8z m58 -17 c13 -16 12 -17 -3 -4 -17 13 -22 21
-14 21 2 0 10 -8 17 -17z m59 13 c0 -2 -8 -10 -17 -17 -16 -13 -17 -12 -4 4
13 16 21 21 21 13z m8480 0 c0 -2 -8 -10 -17 -17 -16 -13 -17 -12 -4 4 13 16
21 21 21 13z m67 -21 c0 -8 -4 -12 -9 -9 -5 3 -6 10 -3 15 9 13 12 11 12 -6z
m-39 -16 c9 -12 9 -16 -1 -16 -7 0 -14 9 -14 20 -1 11 -1 18 0 16 2 -2 8 -11
15 -20z m-8558 -14 c-10 -12 -10 -18 1 -32 12 -17 12 -17 -6 -1 -15 14 -16 20
-5 32 7 9 15 16 17 16 3 0 0 -7 -7 -15z m8525 5 c3 -6 -1 -7 -9 -4 -18 7 -21
14 -7 14 6 0 13 -4 16 -10z m91 -20 c0 -12 -4 -16 -9 -11 -5 5 -6 14 -3 20 10
15 12 14 12 -9z m-8581 -9 c3 -5 2 -12 -3 -15 -5 -3 -9 1 -9 9 0 17 3 19 12 6z
m8521 -32 c0 -15 -3 -26 -8 -23 -5 3 -6 10 -2 15 3 5 1 16 -5 23 -8 9 -7 13 2
13 8 0 13 -12 13 -28z m-8600 -14 c1 -8 -1 -17 -5 -19 -4 -3 -7 6 -7 19 0 25
8 25 12 0z m44 11 c0 -2 -8 -10 -17 -17 -16 -13 -17 -12 -4 4 13 16 21 21 21
13z m-80 -20 c-7 -7 -13 -7 -20 0 -6 6 -3 10 10 10 13 0 16 -4 10 -10z m8684
6 c2 -4 -4 -8 -14 -8 -10 0 -16 4 -14 8 3 4 9 8 14 8 5 0 11 -4 14 -8z m-4
-36 c0 -2 -7 -7 -16 -10 -8 -3 -12 -2 -9 4 6 10 25 14 25 6z m37 -19 c1 -11 1
-18 0 -16 -2 2 -8 11 -15 20 -9 12 -9 16 1 16 7 0 14 -9 14 -20z m64 -4 c13
-16 12 -17 -3 -4 -10 7 -18 15 -18 17 0 8 8 3 21 -13z m69 2 c-7 -9 -15 -13
-18 -10 -3 3 -12 -1 -21 -8 -14 -11 -14 -10 -2 5 7 10 17 16 21 13 5 -3 11 -1
15 5 3 5 9 10 12 10 3 0 0 -7 -7 -15z m-8851 2 c-2 -2 -11 -8 -20 -15 -12 -9
-16 -9 -16 1 0 7 9 14 20 14 11 1 18 1 16 0z m-88 -34 c13 -16 12 -17 -3 -4
-17 13 -22 21 -14 21 2 0 10 -8 17 -17z m8849 9 c0 -5 -7 -9 -15 -9 -8 0 -12
4 -9 9 3 4 9 8 15 8 5 0 9 -4 9 -8z m-8876 -20 c3 -5 -1 -9 -9 -9 -8 0 -12 4
-9 9 3 4 7 8 9 8 2 0 6 -4 9 -8z m8917 -19 c13 -16 12 -17 -3 -4 -10 7 -18 15
-18 17 0 8 8 3 21 -13z m-8837 -5 c-3 -4 -9 -8 -15 -8 -5 0 -9 4 -9 8 0 5 7 9
15 9 8 0 12 -4 9 -9z m8881 2 c-3 -5 -12 -10 -18 -10 -7 0 -6 4 3 10 19 12 23
12 15 0z m33 -9 c-7 -9 -13 -18 -15 -20 -1 -2 -1 5 0 16 0 11 7 20 14 20 10 0
10 -4 1 -16z m-8990 0 c16 12 16 12 0 -6 -18 -19 -18 -19 -35 0 -17 18 -17 18
0 6 14 -11 20 -11 35 0z m18 -29 c-17 -16 -18 -16 -5 5 7 12 15 20 18 17 3 -2
-3 -12 -13 -22z m87 13 c4 -8 3 -16 -1 -19 -4 -3 -9 4 -9 15 -2 23 3 25 10 4z
m8762 -17 c-7 -32 -13 -32 -11 1 0 16 4 27 8 25 4 -2 5 -14 3 -26z m86 5 c13
-16 12 -17 -3 -4 -10 7 -18 15 -18 17 0 8 8 3 21 -13z m75 -15 c5 4 6 3 2 -2
-4 -5 -3 -15 3 -23 21 -25 3 -13 -22 14 -13 15 -17 22 -8 15 9 -6 20 -8 25 -4z
m-96 -2 c0 -2 -7 -7 -16 -10 -8 -3 -12 -2 -9 4 6 10 25 14 25 6z m20 -10 c0
-2 -8 -10 -17 -17 -16 -13 -17 -12 -4 4 13 16 21 21 21 13z m-9007 -31 c-7
-21 -12 -19 -10 4 0 11 5 18 9 15 4 -3 5 -11 1 -19z m85 5 c-7 -10 -14 -17
-17 -15 -4 4 18 35 25 35 2 0 -1 -9 -8 -20z m8861 -3 c8 -10 7 -14 -2 -14 -8
0 -14 6 -14 14 0 7 1 13 2 13 2 0 8 -6 14 -13z m-8986 -22 c-3 -9 -8 -14 -10
-11 -3 3 -2 9 2 15 9 16 15 13 8 -4z m88 -2 c13 -16 12 -17 -3 -4 -17 13 -22
21 -14 21 2 0 10 -8 17 -17z m9076 -14 c1 -10 -6 -24 -15 -31 -15 -12 -16 -11
-3 5 10 12 11 20 2 30 -8 10 -7 14 2 14 7 0 14 -8 14 -18z m-9096 -6 c13 -16
12 -17 -3 -4 -10 7 -18 15 -18 17 0 8 8 3 21 -13z m-65 -18 c-1 -8 -5 -17 -8
-21 -5 -4 -4 16 1 34 3 9 9 -1 7 -13z m9081 -18 c1 -11 1 -18 0 -16 -2 2 -8
11 -15 20 -9 12 -9 16 1 16 7 0 14 -9 14 -20z m43 -11 c0 -2 -8 -10 -17 -17
-16 -13 -17 -12 -4 4 13 16 21 21 21 13z m41 -13 c13 -16 12 -17 -3 -4 -10 7
-18 15 -18 17 0 8 8 3 21 -13z m34 8 c3 -5 2 -12 -3 -15 -5 -3 -9 1 -9 9 0 17
3 19 12 6z m-9278 -16 c0 -8 -4 -12 -9 -9 -5 3 -6 10 -3 15 9 13 12 11 12 -6z
m43 1 c-7 -7 -13 -7 -20 0 -6 6 -3 10 10 10 13 0 16 -4 10 -10z m121 1 c-6 -8
-9 -17 -6 -20 3 -4 2 -5 -2 -2 -3 3 -13 -1 -22 -7 -9 -7 -5 0 8 15 25 27 43
39 22 14z m8979 -1 c0 -2 -8 -10 -17 -17 -16 -13 -17 -12 -4 4 13 16 21 21 21
13z m-9061 -9 c-2 -1 -13 -9 -24 -17 -19 -14 -19 -14 -6 3 7 9 18 17 24 17 6
0 8 -1 6 -3z m9131 -7 c-8 -5 -19 -10 -25 -10 -5 0 -3 5 5 10 8 5 20 10 25 10
6 0 3 -5 -5 -10z m71 -17 c13 -16 12 -17 -3 -4 -10 7 -18 15 -18 17 0 8 8 3
21 -13z m-164 -18 c0 -8 -4 -12 -9 -9 -5 3 -6 10 -3 15 9 13 12 11 12 -6z
m-8999 -16 c9 -12 9 -16 -1 -16 -7 0 -14 9 -14 20 -1 11 -1 18 0 16 2 -2 8
-11 15 -20z m-78 -14 c-9 -11 -10 -19 -1 -28 8 -10 7 -14 -2 -14 -8 0 -14 7
-14 16 0 16 15 41 24 41 3 0 0 -7 -7 -15z m45 5 c3 -6 -1 -7 -9 -4 -18 7 -21
14 -7 14 6 0 13 -4 16 -10z m9185 -14 c0 -2 -8 -10 -17 -17 -16 -13 -17 -12
-4 4 13 16 21 21 21 13z m-9153 -39 c1 -11 1 -18 0 -16 -2 2 -8 11 -15 20 -9
12 -9 16 1 16 7 0 14 -9 14 -20z m8999 -5 c-3 -3 0 -12 6 -21 10 -13 10 -14
-2 -4 -16 15 -23 46 -8 37 5 -3 7 -9 4 -12z m-8956 -6 c0 -2 -8 -10 -17 -17
-16 -13 -17 -12 -4 4 13 16 21 21 21 13z m8934 -46 c-6 -6 -10 -3 -10 10 0 13
4 16 10 10 7 -7 7 -13 0 -20z m103 5 c0 -8 -4 -12 -9 -9 -5 3 -6 10 -3 15 9
13 12 11 12 -6z m-9086 -22 c13 -16 12 -17 -3 -4 -17 13 -22 21 -14 21 2 0 10
-8 17 -17z m8926 -10 c-4 -3 -1 -13 6 -22 11 -14 10 -14 -5 -2 -16 12 -16 31
-1 31 4 0 3 -3 0 -7z m32 -7 c9 -11 9 -16 -1 -22 -7 -4 -10 -4 -6 1 4 4 3 14
-3 22 -6 7 -9 13 -6 13 2 0 10 -6 16 -14z m-8939 -9 c0 -2 -9 -12 -19 -21 -14
-13 -21 -14 -27 -5 -4 7 -3 10 3 6 6 -4 16 0 23 8 12 14 20 19 20 12z m27 -4
c-4 -3 1 -16 10 -27 14 -15 14 -18 2 -8 -9 6 -18 9 -22 6 -3 -3 -4 2 -2 13 5
24 4 23 12 23 3 0 3 -3 0 -7z m43 -7 c-7 -7 -13 -7 -20 0 -6 6 -3 10 10 10 13
0 16 -4 10 -10z m8925 5 c-9 -8 -36 -10 -30 -2 2 4 11 8 20 8 8 0 13 -3 10 -6z
m49 -27 c3 -8 2 -12 -4 -9 -6 3 -10 10 -10 16 0 14 7 11 14 -7z m-8934 -16 c0
-4 -4 -8 -9 -8 -6 0 -12 4 -15 8 -3 5 1 9 9 9 8 0 15 -4 15 -9z m-78 -12 c10
6 11 4 0 -7 -10 -11 -15 -10 -30 6 -15 17 -15 18 0 6 9 -7 23 -9 30 -5z m139
-3 c13 -16 12 -17 -3 -4 -10 7 -18 15 -18 17 0 8 8 3 21 -13z m8699 14 c0 -2
-10 -12 -22 -23 l-23 -19 19 23 c18 21 26 27 26 19z m56 -17 c0 -12 -4 -16 -9
-11 -5 5 -6 14 -3 20 10 15 12 14 12 -9z m-8859 -8 c0 -10 -6 -19 -13 -19 -9
0 -9 5 -1 19 7 10 13 18 14 18 1 0 1 -8 0 -18z m73 14 c0 -2 -8 -10 -17 -17
-16 -13 -17 -12 -4 4 13 16 21 21 21 13z m8761 -33 c13 -16 12 -17 -3 -4 -10
7 -18 15 -18 17 0 8 8 3 21 -13z m84 9 c-3 -3 0 -11 6 -19 17 -20 5 -16 -14 5
-15 16 -15 19 -2 19 8 0 13 -3 10 -5z m40 -10 c-3 -3 -11 0 -18 7 -9 10 -8 11
6 5 10 -3 15 -9 12 -12z m-171 -14 c-3 -4 -9 -8 -15 -8 -5 0 -9 4 -9 8 0 5 7
9 15 9 8 0 12 -4 9 -9z m67 -11 c-10 -9 -11 -8 -5 6 3 10 9 15 12 12 3 -3 0
-11 -7 -18z m-8751 -30 c-24 -22 -24 -22 -6 0 10 12 15 27 11 35 -7 10 -5 11
6 0 11 -10 9 -16 -11 -35z m-130 27 c0 -8 -19 -13 -24 -6 -3 5 1 9 9 9 8 0 15
-2 15 -3z m27 -16 c2 -17 0 -19 -7 -8 -5 8 -6 18 -4 22 8 12 10 10 11 -14z
m8813 18 c0 -2 -8 -10 -17 -17 -16 -13 -17 -12 -4 4 13 16 21 21 21 13z m-80
-40 c0 -2 -8 -10 -17 -17 -16 -13 -17 -12 -4 4 13 16 21 21 21 13z m69 -30
c-3 -3 -11 5 -18 17 -13 21 -12 21 5 5 10 -10 16 -20 13 -22z m-8725 -2 c3 -8
2 -12 -4 -9 -6 3 -10 10 -10 16 0 14 7 11 14 -7z m8680 8 c3 -5 -1 -9 -9 -9
-8 0 -12 4 -9 9 3 4 7 8 9 8 2 0 6 -4 9 -8z m122 -18 c-3 -15 -8 -29 -11 -32
-3 -3 -3 5 -1 19 2 13 5 27 5 32 1 4 3 7 6 7 3 0 3 -12 1 -26z m-8718 -14 c-7
-10 -14 -17 -17 -15 -4 4 18 35 25 35 2 0 -1 -9 -8 -20z m8686 8 c-3 -4 -9 -8
-15 -8 -5 0 -9 4 -9 8 0 5 7 9 15 9 8 0 12 -4 9 -9z m-8770 -27 c-2 -3 -12 3
-22 13 -16 17 -16 18 5 5 12 -7 20 -15 17 -18z m8694 20 c16 12 16 12 0 -6
-18 -19 -18 -19 -35 0 -17 18 -17 18 0 6 14 -11 20 -11 35 0z m-48 -26 c14
-19 14 -19 -2 -6 -10 7 -18 18 -18 24 0 6 1 8 3 6 1 -2 9 -13 17 -24z m91 8
c13 -16 12 -17 -3 -4 -10 7 -18 15 -18 17 0 8 8 3 21 -13z m-8721 -28 c-7 -8
-17 -15 -23 -15 -6 0 -2 7 9 15 25 19 30 19 14 0z m86 -11 c1 -9 0 -13 -4 -10
-3 4 -7 14 -8 22 -1 9 0 13 4 10 3 -4 7 -14 8 -22z m-52 -12 c2 -4 -4 -8 -14
-8 -10 0 -16 4 -14 8 3 4 9 8 14 8 5 0 11 -4 14 -8z m8673 -15 c1 -11 1 -18 0
-16 -2 2 -8 11 -15 20 -9 12 -9 16 1 16 7 0 14 -9 14 -20z m-8558 -14 c2 -1
-5 -1 -16 0 -11 0 -20 7 -20 14 0 10 4 10 16 1 9 -7 18 -13 20 -15z m8495 -3
c-6 -6 -10 -3 -10 10 0 13 4 16 10 10 7 -7 7 -13 0 -20z m-8558 8 c4 -7 4 -10
-1 -6 -4 4 -15 2 -24 -5 -14 -11 -14 -10 -2 6 16 20 18 21 27 5z m-3 -33 c-3
-9 -8 -14 -10 -11 -3 3 -2 9 2 15 9 16 15 13 8 -4z m8594 -3 c-10 -10 -15 -21
-12 -24 3 -2 -2 -5 -10 -5 -10 0 -12 4 -5 12 5 7 6 16 2 20 -4 5 -2 5 5 1 6
-3 14 -2 18 4 3 5 9 10 12 10 3 0 -1 -8 -10 -18z m-156 -15 c-10 -9 -11 -8 -5
6 3 10 9 15 12 12 3 -3 0 -11 -7 -18z m103 7 c3 -8 2 -12 -4 -9 -6 3 -10 10
-10 16 0 14 7 11 14 -7z m-8588 -16 c3 -4 -1 -5 -10 -4 -8 1 -18 5 -22 8 -3 4
1 5 10 4 8 -1 18 -5 22 -8z m76 -12 c10 6 11 4 0 -7 -10 -11 -15 -10 -30 6
-15 17 -15 18 0 6 9 -7 23 -9 30 -5z m8517 -13 c2 -1 -5 -1 -16 0 -11 0 -20 7
-20 14 0 10 4 10 16 1 9 -7 18 -13 20 -15z m-8493 -11 c-17 -16 -18 -16 -5 5
7 12 15 20 18 17 3 -2 -3 -12 -13 -22z m68 12 c3 -8 2 -12 -4 -9 -6 3 -10 10
-10 16 0 14 7 11 14 -7z m8363 -1 c0 -10 -4 -10 -16 -1 -9 7 -18 13 -20 15 -2
1 5 1 16 0 11 0 20 -7 20 -14z m-56 -16 c-6 -8 -9 -17 -6 -20 3 -4 2 -5 -2 -2
-3 3 -13 -1 -22 -7 -9 -7 -5 0 8 15 25 27 43 39 22 14z m-8404 -12 c0 -8 -4
-12 -9 -9 -5 3 -6 10 -3 15 9 13 12 11 12 -6z m8539 -5 c0 -12 -4 -16 -9 -11
-5 5 -6 14 -3 20 10 15 12 14 12 -9z m-8461 1 c-3 -2 1 -11 7 -20 10 -12 7
-12 -8 2 -11 9 -23 14 -26 11 -3 -3 -8 -1 -11 3 -3 5 5 9 18 9 14 0 22 -2 20
-5z m-105 -16 c0 -2 -6 -8 -13 -14 -10 -8 -14 -7 -14 2 0 8 6 14 14 14 7 0 13
-1 13 -2z m162 -20 c2 3 5 -2 5 -10 0 -19 0 -19 -23 7 -12 14 -13 18 -3 10 9
-6 18 -10 21 -7z m8284 -5 c0 -12 -4 -16 -9 -11 -5 5 -6 14 -3 20 10 15 12 14
12 -9z m-63 -8 c15 -16 15 -19 2 -19 -8 0 -13 3 -10 5 3 3 0 11 -6 19 -17 20
-5 16 14 -5z m141 10 c3 -5 -1 -9 -9 -9 -8 0 -12 4 -9 9 3 4 7 8 9 8 2 0 6 -4
9 -8z m-8413 -25 c-6 -8 -9 -16 -6 -19 3 -3 -3 -11 -12 -19 -16 -13 -17 -12
-4 4 7 9 10 17 6 17 -4 0 -2 7 5 15 7 8 15 15 17 15 3 0 0 -6 -6 -13z m37 -22
c-3 -3 -9 2 -12 12 -6 14 -5 15 5 6 7 -7 10 -15 7 -18z m-73 6 c-9 -8 -36 -10
-30 -2 2 4 11 8 20 8 8 0 13 -3 10 -6z m8389 0 c-8 -8 -34 -10 -38 -2 -3 4 6
7 19 7 14 0 22 -2 19 -5z m-77 -34 c1 -11 1 -18 0 -16 -2 2 -8 11 -15 20 -9
12 -9 16 1 16 7 0 14 -9 14 -20z m-8331 -9 c12 -14 13 -18 3 -10 -9 6 -18 10
-21 7 -2 -3 -5 2 -5 10 0 19 0 19 23 -7z m74 18 c0 -2 -8 -10 -17 -17 -16 -13
-17 -12 -4 4 13 16 21 21 21 13z m8321 -13 c13 -16 12 -17 -3 -4 -10 7 -18 15
-18 17 0 8 8 3 21 -13z m49 3 c0 -2 -8 -10 -17 -17 -16 -13 -17 -12 -4 4 13
16 21 21 21 13z m-8394 -52 c1 -9 -1 -13 -4 -9 -4 4 -7 10 -7 13 0 4 -4 14 -9
22 -7 12 -6 13 4 3 8 -7 15 -20 16 -29z m8324 28 c0 -5 -7 -9 -15 -9 -8 0 -12
4 -9 9 3 4 9 8 15 8 5 0 9 -4 9 -8z m-70 -17 c-7 -9 -15 -13 -18 -10 -3 3 -12
-1 -21 -8 -14 -11 -14 -10 -2 5 7 10 17 16 21 13 5 -3 11 -1 15 5 3 5 9 10 12
10 3 0 0 -7 -7 -15z m124 -11 c3 -8 2 -12 -4 -9 -6 3 -10 10 -10 16 0 14 7 11
14 -7z m-58 -20 c1 -9 0 -13 -4 -10 -3 4 -7 14 -8 22 -1 9 0 13 4 10 3 -4 7
-14 8 -22z m-8198 -3 c-7 -9 -13 -18 -15 -20 -1 -2 -1 5 0 16 0 11 7 20 14 20
10 0 10 -4 1 -16z m8241 -15 c-3 -3 -11 5 -18 17 -13 21 -12 21 5 5 10 -10 16
-20 13 -22z m-8299 20 c0 -2 -8 -10 -17 -17 -16 -13 -17 -12 -4 4 13 16 21 21
21 13z m8176 -11 c-1 -8 -5 -17 -8 -21 -5 -4 -4 16 1 34 3 9 9 -1 7 -13z
m-8224 -13 c11 -15 11 -15 -3 -5 -8 7 -25 11 -38 8 -12 -2 -20 -1 -17 3 9 15
45 10 58 -6z m8181 0 c15 -16 15 -19 2 -19 -8 0 -13 3 -10 5 3 3 0 11 -6 19
-17 20 -5 16 14 -5z m-8109 -10 c3 -5 -1 -9 -9 -9 -8 0 -15 4 -15 9 0 4 4 8 9
8 6 0 12 -4 15 -8z m57 -19 c13 -16 12 -17 -3 -4 -17 13 -22 21 -14 21 2 0 10
-8 17 -17z m35 -3 c0 -12 -4 -16 -9 -11 -5 5 -6 14 -3 20 10 15 12 14 12 -9z
m-136 -4 c0 -2 -8 -10 -17 -17 -16 -13 -17 -12 -4 4 13 16 21 21 21 13z m84
-14 c2 -4 -4 -8 -14 -8 -10 0 -16 4 -14 8 3 4 9 8 14 8 5 0 11 -4 14 -8z m31
-11 c3 -5 2 -12 -3 -15 -5 -3 -9 1 -9 9 0 17 3 19 12 6z m8016 -18 c13 -17 13
-17 -6 -3 -11 8 -22 16 -24 17 -2 2 0 3 6 3 6 0 17 -8 24 -17z m123 9 c2 -4
-5 -9 -17 -9 -17 -2 -19 0 -7 7 18 12 18 12 24 2z m-8209 -42 c10 -11 16 -20
13 -20 -3 0 -13 9 -23 20 -10 11 -16 20 -13 20 3 0 13 -9 23 -20z m56 3 c13
-16 12 -17 -3 -4 -17 13 -22 21 -14 21 2 0 10 -8 17 -17z m8039 1 c0 -8 -19
-13 -24 -6 -3 5 1 9 9 9 8 0 15 -2 15 -3z m90 2 c0 -2 -8 -10 -17 -17 -16 -13
-17 -12 -4 4 13 16 21 21 21 13z m-102 -43 c-9 -10 -14 -26 -13 -35 2 -9 -4
-23 -13 -30 -13 -11 -14 -11 -7 2 6 8 10 22 10 31 0 16 22 49 33 49 3 0 -2 -8
-10 -17z m43 -10 c13 -16 12 -17 -3 -4 -10 7 -18 15 -18 17 0 8 8 3 21 -13z
m-8055 -8 c-1 -8 -5 -17 -8 -21 -5 -4 -4 16 1 34 3 9 9 -1 7 -13z m38 -3 c3
-5 -1 -9 -9 -9 -8 0 -12 4 -9 9 3 4 7 8 9 8 2 0 6 -4 9 -8z m-63 -69 c12 -16
12 -17 -2 -6 -9 7 -19 10 -22 6 -4 -3 -7 -1 -7 5 0 17 16 15 31 -5z m8040 0
c13 -16 12 -17 -3 -4 -10 7 -18 15 -18 17 0 8 8 3 21 -13z m-7977 -11 c3 -5
-1 -9 -9 -9 -8 0 -12 4 -9 9 3 4 7 8 9 8 2 0 6 -4 9 -8z m7957 -9 c13 -16 12
-17 -3 -4 -10 7 -18 15 -18 17 0 8 8 3 21 -13z m49 -9 c0 -8 -19 -13 -24 -6
-3 5 1 9 9 9 8 0 15 -2 15 -3z m-8004 -84 c0 -12 -4 -16 -9 -11 -5 5 -6 14 -3
20 10 15 12 14 12 -9z m7964 6 c0 -2 -7 -7 -16 -10 -8 -3 -12 -2 -9 4 6 10 25
14 25 6z m-7110 -1482 c0 -8 -19 -13 -24 -6 -3 5 1 9 9 9 8 0 15 -2 15 -3z
m6187 -19 c0 -8 -4 -12 -9 -9 -5 3 -6 10 -3 15 9 13 12 11 12 -6z m-6080 -52
c0 -9 -4 -10 -14 -2 -7 6 -13 12 -13 14 0 1 6 2 13 2 8 0 14 -6 14 -14z m6003
-14 c0 -4 -9 -7 -19 -6 -11 0 -18 4 -16 7 6 9 35 8 35 -1z m74 -5 c3 -8 2 -12
-4 -9 -6 3 -10 10 -10 16 0 14 7 11 14 -7z m-6094 -18 c0 -2 -8 -10 -17 -17
-16 -13 -17 -12 -4 4 13 16 21 21 21 13z m55 -8 c5 4 5 1 1 -6 -6 -10 -11 -10
-22 -1 -8 6 -14 14 -14 16 0 3 6 0 13 -6 8 -6 18 -7 22 -3z m5985 8 c0 -2 -8
-10 -17 -17 -16 -13 -17 -12 -4 4 13 16 21 21 21 13z m-5969 -29 c-10 -9 -11
-8 -5 6 3 10 9 15 12 12 3 -3 0 -11 -7 -18z m5778 -20 c-9 -7 -15 -22 -14 -34
1 -12 -3 -21 -8 -20 -6 1 -15 -7 -21 -18 -6 -11 -24 -42 -40 -69 -25 -43 -27
-52 -16 -70 10 -17 10 -19 -1 -8 -13 12 -38 18 -26 6 3 -4 -1 -13 -9 -21 -8
-8 -12 -19 -9 -24 4 -5 2 -9 -3 -9 -4 0 -28 -34 -53 -75 -115 -197 -123 -211
-113 -226 3 -5 2 -9 -3 -8 -18 3 -36 -1 -30 -8 4 -3 2 -12 -5 -20 -15 -18 -67
-113 -75 -135 -3 -10 -9 -18 -13 -18 -5 0 -11 -14 -15 -30 -4 -17 -11 -28 -16
-24 -5 3 -9 0 -9 -5 0 -20 -3 -26 -17 -36 -8 -6 -15 -23 -17 -38 -1 -15 -6
-30 -11 -35 -4 -4 -5 -1 -1 6 4 6 5 12 2 12 -11 0 -47 -71 -40 -81 4 -8 3 -9
-4 -5 -7 4 -14 -3 -18 -18 -5 -21 -11 -24 -42 -23 -21 1 -43 -2 -49 -6 -6 -4
-14 -4 -16 0 -7 11 -910 8 -927 -2 -9 -5 -11 -4 -6 3 8 14 -20 12 -43 -2 -10
-6 -12 -5 -7 2 5 9 -9 11 -48 7 -31 -2 -56 0 -56 5 0 10 115 80 131 80 5 0 9
4 9 8 0 4 16 14 35 21 19 7 35 16 35 21 0 4 12 13 28 19 15 6 45 22 67 35 22
14 51 31 65 39 98 54 134 75 205 117 85 50 143 83 258 149 17 10 68 40 112 66
44 26 125 71 180 100 55 29 226 127 379 219 254 151 320 188 275 153z m139 4
c16 12 16 12 0 -6 -18 -19 -18 -19 -35 0 -17 18 -17 18 0 6 14 -11 20 -11 35
0z m-5889 -4 c-2 -2 -11 -8 -20 -15 -12 -9 -16 -9 -16 1 0 7 9 14 20 14 11 1
18 1 16 0z m5932 -14 c13 -16 12 -17 -3 -4 -17 13 -22 21 -14 21 2 0 10 -8 17
-17z m-5785 -14 c20 -11 115 -65 210 -119 95 -55 178 -101 185 -102 7 -2 124
-67 262 -145 137 -79 253 -143 258 -143 5 0 9 -4 9 -10 0 -5 4 -10 9 -10 9 0
573 -319 596 -337 6 -4 40 -23 75 -42 36 -19 67 -37 70 -40 3 -3 22 -15 43
-25 20 -11 37 -22 37 -26 0 -4 -149 -6 -331 -6 -182 1 -333 -3 -336 -7 -3 -4
-10 -4 -16 1 -7 4 -128 8 -269 7 l-257 -1 -10 24 c-7 14 -16 20 -23 16 -6 -4
-8 -3 -4 4 6 11 -36 98 -58 117 -6 6 -11 17 -11 25 0 8 -11 20 -23 26 -14 7
-19 13 -12 16 9 3 3 19 -17 51 -16 26 -33 44 -38 40 -4 -5 -5 -2 -1 4 8 15
-17 56 -28 46 -4 -4 -4 0 -1 9 3 8 0 22 -7 29 -11 12 -23 32 -72 124 -6 11
-13 22 -16 25 -3 3 -11 18 -18 33 -7 15 -16 26 -21 23 -5 -3 -8 2 -7 12 0 11
-6 16 -17 16 -13 -1 -15 2 -8 10 7 8 -7 42 -46 111 -31 55 -60 102 -65 103 -4
2 -8 10 -8 18 0 8 -5 14 -11 14 -5 0 -7 5 -4 10 3 6 1 10 -4 10 -6 0 -10 3 -9
8 4 12 -35 71 -44 66 -4 -3 -5 3 -1 12 5 14 3 16 -11 11 -10 -4 -15 -3 -11 3
9 14 20 13 61 -11z m-192 -18 c3 -5 -2 -15 -12 -22 -15 -12 -16 -12 -5 2 7 9
10 19 6 22 -3 4 -4 7 0 7 3 0 8 -4 11 -9z m52 -3 c3 -4 -1 -5 -10 -4 -8 1 -18
5 -22 8 -3 4 1 5 10 4 8 -1 18 -5 22 -8z m72 -27 c-7 -9 -13 -18 -15 -20 -1
-2 -1 5 0 16 0 11 7 20 14 20 10 0 10 -4 1 -16z m5759 -4 c1 -11 1 -18 0 -16
-2 2 -8 11 -15 20 -9 12 -9 16 1 16 7 0 14 -9 14 -20z m81 4 c-7 -9 -13 -18
-15 -20 -1 -2 -1 5 0 16 0 11 7 20 14 20 10 0 10 -4 1 -16z m-5787 -18 c13
-17 13 -17 -6 -3 -11 8 -22 16 -24 17 -2 2 0 3 6 3 6 0 17 -8 24 -17z m5749
-11 c0 -5 -7 -9 -15 -9 -8 0 -12 4 -9 9 3 4 9 8 15 8 5 0 9 -4 9 -8z m-60 -6
c0 -2 -6 -9 -14 -15 -11 -9 -16 -9 -22 0 -4 7 -3 9 4 5 6 -3 13 -2 17 4 6 10
15 14 15 6z m-5834 -19 c4 -3 -4 -4 -16 -2 -30 6 -40 16 -12 12 12 -2 24 -6
28 -10z m5854 -1 c0 -2 -8 -10 -17 -17 -16 -13 -17 -12 -4 4 13 16 21 21 21
13z m-5750 -10 c0 -2 -8 -10 -17 -17 -16 -13 -17 -12 -4 4 13 16 21 21 21 13z
m5667 -19 c1 -11 1 -18 0 -16 -2 2 -8 11 -15 20 -9 12 -9 16 1 16 7 0 14 -9
14 -20z m-5779 -12 c-3 -3 -9 2 -12 12 -6 14 -5 15 5 6 7 -7 10 -15 7 -18z
m52 11 c0 -2 -8 -10 -17 -17 -16 -13 -17 -12 -4 4 13 16 21 21 21 13z m5811
-23 c13 -16 12 -17 -3 -4 -10 7 -18 15 -18 17 0 8 8 3 21 -13z m-5776 -40
c-18 -17 -18 -17 -6 0 11 14 11 20 0 35 -12 16 -12 16 6 0 19 -18 19 -18 0
-35z m105 43 c0 -2 -8 -10 -17 -17 -16 -13 -17 -12 -4 4 13 16 21 21 21 13z
m5515 -6 c-3 -5 -12 -10 -18 -10 -7 0 -6 4 3 10 19 12 23 12 15 0z m51 -20 c0
-12 -4 -16 -9 -11 -5 5 -6 14 -3 20 10 15 12 14 12 -9z m-5703 -5 c4 -8 3 -16
-1 -19 -4 -3 -9 4 -9 15 -2 23 3 25 10 4z m5798 -2 c13 -16 12 -17 -3 -5 -24
19 -36 8 -33 -28 1 -17 -4 -35 -13 -42 -13 -11 -14 -11 -7 2 6 8 10 26 10 40
1 48 22 63 46 33z m-5621 -7 c0 -2 -8 -10 -17 -17 -16 -13 -17 -12 -4 4 13 16
21 21 21 13z m-120 -21 c-7 -8 -17 -15 -23 -15 -6 0 -2 7 9 15 25 19 30 19 14
0z m26 -10 c-1 -8 -5 -17 -8 -21 -5 -4 -4 16 1 34 3 9 9 -1 7 -13z m5565 2
c-6 -8 -7 -18 -3 -22 4 -5 1 -5 -6 -1 -10 6 -10 11 -1 22 6 8 14 14 16 14 3 0
0 -6 -6 -13z m-5511 -11 c0 -2 -8 -10 -17 -17 -16 -13 -17 -12 -4 4 13 16 21
21 21 13z m5474 -4 c3 -5 -1 -9 -9 -9 -8 0 -12 4 -9 9 3 4 7 8 9 8 2 0 6 -4 9
-8z m76 4 c0 -2 -7 -7 -16 -10 -8 -3 -12 -2 -9 4 6 10 25 14 25 6z m31 -38
c-11 -11 -13 -10 -7 0 4 7 2 21 -5 30 -12 15 -11 15 6 0 16 -15 17 -20 6 -30z
m-5674 -19 c2 -23 -7 -20 -11 4 -1 8 -8 23 -16 33 -14 18 -14 18 6 2 11 -9 20
-27 21 -39z m43 9 c0 -4 -4 -8 -9 -8 -6 0 -12 4 -15 8 -3 5 1 9 9 9 8 0 15 -4
15 -9z m120 -3 c-5 -6 -8 -22 -5 -35 2 -12 1 -20 -3 -16 -13 13 -10 63 4 63 9
0 11 -4 4 -12z m5438 -4 c-7 -9 -13 -18 -15 -20 -1 -2 -1 5 0 16 0 11 7 20 14
20 10 0 10 -4 1 -16z m46 11 c3 -5 -1 -9 -9 -9 -8 0 -12 4 -9 9 3 4 7 8 9 8 2
0 6 -4 9 -8z m-5536 -25 c17 -18 19 -24 7 -24 -8 0 -13 3 -10 5 3 3 -2 14 -12
24 -24 27 -10 22 15 -5z m5446 -6 c-2 -3 -12 3 -22 13 -16 17 -16 18 5 5 12
-7 20 -15 17 -18z m146 25 c0 -2 -8 -10 -17 -17 -16 -13 -17 -12 -4 4 13 16
21 21 21 13z m-5630 -10 c0 -2 -8 -10 -17 -17 -16 -13 -17 -12 -4 4 13 16 21
21 21 13z m127 -39 c0 -8 -6 -14 -14 -14 -9 0 -10 4 -2 14 6 7 12 13 14 13 1
0 2 -6 2 -13z m5435 -2 c2 3 5 -2 5 -10 0 -10 -4 -12 -12 -5 -7 5 -14 8 -17 5
-2 -3 -5 2 -5 10 0 10 4 12 12 5 7 -5 14 -8 17 -5z m-5532 -48 c-24 -22 -24
-22 -6 0 10 12 15 27 11 35 -7 10 -5 11 6 0 11 -10 9 -16 -11 -35z m5417 10
c1 -11 1 -18 0 -16 -2 2 -8 11 -15 20 -9 12 -9 16 1 16 7 0 14 -9 14 -20z m49
11 c3 -4 -1 -5 -10 -4 -8 1 -18 5 -22 8 -3 4 1 5 10 4 8 -1 18 -5 22 -8z
m-5385 -15 c13 -16 12 -17 -3 -4 -10 7 -18 15 -18 17 0 8 8 3 21 -13z m5444
-3 c10 -11 16 -20 13 -20 -3 0 -13 9 -23 20 -10 11 -16 20 -13 20 3 0 13 -9
23 -20z m-5475 6 c0 -2 -8 -10 -17 -17 -16 -13 -17 -12 -4 4 13 16 21 21 21
13z m75 -63 c-18 -17 -18 -17 -6 0 11 14 11 20 0 35 -12 16 -12 16 6 0 19 -18
19 -18 0 -35z m-151 11 c3 -8 2 -12 -4 -9 -6 3 -10 10 -10 16 0 14 7 11 14 -7z
m5400 0 c3 -8 2 -12 -4 -9 -6 3 -10 10 -10 16 0 14 7 11 14 -7z m150 7 c-8 -8
-34 -10 -38 -2 -3 4 6 7 19 7 14 0 22 -2 19 -5z m-5499 -20 c-9 -8 -36 -10
-30 -2 2 4 11 8 20 8 8 0 13 -3 10 -6z m32 -13 c2 -17 0 -19 -7 -8 -5 8 -6 18
-4 22 8 12 10 10 11 -14z m38 4 c-3 -3 -11 0 -18 7 -9 10 -8 11 6 5 10 -3 15
-9 12 -12z m5316 1 c13 -16 12 -17 -3 -4 -10 7 -18 15 -18 17 0 8 8 3 21 -13z
m60 -20 c13 -17 13 -17 -6 -3 -11 8 -22 16 -24 17 -2 2 0 3 6 3 6 0 17 -8 24
-17z m-131 -17 c-7 -7 -13 -7 -20 0 -6 6 -3 10 10 10 13 0 16 -4 10 -10z m75
-6 c-20 -22 -35 -26 -35 -9 0 5 4 8 9 5 5 -3 14 1 21 9 7 8 15 15 18 15 3 0
-3 -9 -13 -20z m-104 -17 c13 -16 12 -17 -3 -5 -9 8 -23 10 -29 6 -8 -4 -9 -3
-5 4 10 17 21 15 37 -5z m173 9 c3 -5 -1 -9 -9 -9 -8 0 -12 4 -9 9 3 4 7 8 9
8 2 0 6 -4 9 -8z m-5383 -19 c13 -16 12 -17 -3 -4 -10 7 -18 15 -18 17 0 8 8
3 21 -13z m114 -3 c3 -5 1 -10 -4 -10 -6 0 -11 5 -11 10 0 6 2 10 4 10 3 0 8
-4 11 -10z m5215 6 c0 -2 -8 -10 -17 -17 -16 -13 -17 -12 -4 4 13 16 21 21 21
13z m-5273 -19 c0 -7 -9 -14 -20 -14 -19 -2 -19 -2 -1 12 11 8 19 15 20 15 0
0 1 -6 1 -13z m5180 -15 c0 -10 -6 -19 -13 -19 -9 0 -9 5 -1 19 7 10 13 18 14
18 1 0 1 -8 0 -18z m-40 -7 c0 -8 -4 -15 -9 -15 -10 0 -11 14 -1 23 9 10 10 9
10 -8z m-5077 -9 c-7 -7 -13 -7 -20 0 -6 6 -3 10 10 10 13 0 16 -4 10 -10z
m5185 -33 c-18 -17 -18 -17 -6 0 11 14 11 20 0 35 -12 16 -12 16 6 0 19 -18
19 -18 0 -35z m-5285 16 c0 -5 -4 -9 -8 -9 -5 0 -9 7 -9 15 0 8 4 12 9 9 4 -3
8 -9 8 -15z m30 -13 c0 -2 -8 -10 -17 -17 -16 -13 -17 -12 -4 4 13 16 21 21
21 13z m5187 -19 c1 -11 1 -18 0 -16 -2 2 -8 11 -15 20 -9 12 -9 16 1 16 7 0
14 -9 14 -20z m-5117 -12 c0 -2 -9 -3 -19 -2 -11 0 -18 5 -15 9 4 6 34 0 34
-7z m5039 12 c-2 -1 -13 -9 -24 -17 -19 -14 -19 -14 -6 3 7 9 18 17 24 17 6 0
8 -1 6 -3z m121 -11 c0 -2 -8 -10 -17 -17 -16 -13 -17 -12 -4 4 13 16 21 21
21 13z m-5255 -53 c-18 -17 -18 -17 -6 0 11 14 11 20 0 35 -12 16 -12 16 6 0
19 -18 19 -18 0 -35z m5133 27 c-7 -10 -14 -17 -17 -15 -4 4 18 35 25 35 2 0
-1 -9 -8 -20z m-5060 -15 c-3 -3 -9 2 -12 12 -6 14 -5 15 5 6 7 -7 10 -15 7
-18z m5112 10 c-7 -8 -17 -15 -23 -15 -6 0 -2 7 9 15 25 19 30 19 14 0z
m-5016 -3 c3 -5 -1 -9 -9 -9 -8 0 -12 4 -9 9 3 4 7 8 9 8 2 0 6 -4 9 -8z m-34
-6 c0 -2 -8 -10 -17 -17 -16 -13 -17 -12 -4 4 13 16 21 21 21 13z m-41 -43 c2
-1 -5 -1 -16 0 -11 0 -20 7 -20 14 0 10 4 10 16 1 9 -7 18 -13 20 -15z m5062
10 c13 -16 12 -17 -3 -4 -10 7 -18 15 -18 17 0 8 8 3 21 -13z m-110 -16 c-10
-9 -11 -8 -5 6 3 10 9 15 12 12 3 -3 0 -11 -7 -18z m134 -7 c-3 -5 -12 -10
-18 -10 -7 0 -6 4 3 10 19 12 23 12 15 0z m-4973 -12 c-14 -14 -44 -20 -36 -7
3 5 9 7 14 4 5 -3 11 -1 15 5 3 5 9 10 13 10 3 0 1 -5 -6 -12z m4865 -3 c0 -8
-4 -15 -9 -15 -10 0 -11 14 -1 23 9 10 10 9 10 -8z m79 -7 c3 -4 -1 -5 -10 -4
-8 1 -18 5 -22 8 -3 4 1 5 10 4 8 -1 18 -5 22 -8z m-4956 -22 c0 -2 -8 -10
-17 -17 -16 -13 -17 -12 -4 4 13 16 21 21 21 13z m4960 0 c0 -2 -8 -10 -17
-17 -16 -13 -17 -12 -4 4 13 16 21 21 21 13z m-5009 -23 c13 -17 13 -17 -6 -3
-11 8 -22 16 -24 17 -2 2 0 3 6 3 6 0 17 -8 24 -17z m4960 0 c13 -17 13 -17
-6 -3 -11 8 -22 16 -24 17 -2 2 0 3 6 3 6 0 17 -8 24 -17z m-5011 -18 c-10
-12 -10 -18 1 -32 12 -17 12 -17 -6 -1 -15 14 -16 20 -5 32 7 9 15 16 17 16 3
0 0 -7 -7 -15z m4955 -5 c-20 -22 -35 -26 -35 -9 0 5 4 8 9 5 5 -3 14 1 21 9
7 8 15 15 18 15 3 0 -3 -9 -13 -20z m125 -15 c0 -5 -5 -3 -10 5 -5 8 -10 20
-10 25 0 6 5 3 10 -5 5 -8 10 -19 10 -25z m-4946 -5 c-6 -6 -10 -3 -10 10 0
13 4 16 10 10 7 -7 7 -13 0 -20z m4777 -17 c13 -16 12 -17 -3 -4 -10 7 -18 15
-18 17 0 8 8 3 21 -13z m-4851 3 c0 -2 -8 -10 -17 -17 -16 -13 -17 -12 -4 4
13 16 21 21 21 13z m6 -34 c-17 -16 -18 -16 -5 5 7 12 15 20 18 17 3 -2 -3
-12 -13 -22z m111 11 c0 -10 -4 -10 -16 -1 -9 7 -18 13 -20 15 -2 1 5 1 16 0
11 0 20 -7 20 -14z m4700 -1 c0 -10 -7 -19 -14 -19 -9 0 -10 4 -3 12 5 7 7 15
3 18 -3 4 -1 7 5 7 6 0 10 -8 9 -18z m162 15 c-2 -2 -11 -8 -20 -15 -12 -9
-16 -9 -16 1 0 7 9 14 20 14 11 1 18 1 16 0z m-119 -21 c0 -2 -7 -7 -16 -10
-8 -3 -12 -2 -9 4 6 10 25 14 25 6z m31 -13 c13 -16 12 -17 -3 -4 -17 13 -22
21 -14 21 2 0 10 -8 17 -17z m-4793 -18 c-3 -3 -9 2 -12 12 -6 14 -5 15 5 6 7
-7 10 -15 7 -18z m-81 -28 c1 -11 1 -18 0 -16 -2 2 -8 11 -15 20 -9 12 -9 16
1 16 7 0 14 -9 14 -20z m4800 0 c1 -11 1 -18 0 -16 -2 2 -8 11 -15 20 -9 12
-9 16 1 16 7 0 14 -9 14 -20z m-4737 10 c0 -2 -12 -14 -27 -28 l-28 -24 24 28
c23 25 31 32 31 24z m4790 -12 c-7 -8 -17 -15 -23 -15 -6 0 -2 7 9 15 25 19
30 19 14 0z m41 -12 c13 -16 12 -17 -3 -4 -10 7 -18 15 -18 17 0 8 8 3 21 -13z
m-114 -28 c0 -8 -3 -13 -5 -10 -3 3 -10 0 -17 -5 -8 -7 -12 -5 -12 5 0 8 4 12
8 9 4 -2 10 0 14 6 9 14 12 13 12 -5z m-4665 -15 c11 -12 10 -12 -2 -4 -8 6
-28 10 -43 9 -15 -1 -30 1 -32 5 -8 13 65 4 77 -10z m4609 -7 c13 -16 12 -17
-3 -4 -10 7 -18 15 -18 17 0 8 8 3 21 -13z m-4564 -16 c1 -11 1 -18 0 -16 -2
2 -8 11 -15 20 -9 12 -9 16 1 16 7 0 14 -9 14 -20z m3327 -3 c5 -14 4 -15 -9
-4 -17 14 -19 20 -6 20 5 0 12 -7 15 -16z m1286 1 c-7 -8 -17 -15 -23 -15 -6
0 -2 7 9 15 25 19 30 19 14 0z m-4644 -7 c4 -7 3 -8 -5 -4 -6 4 -20 2 -29 -6
-15 -12 -16 -11 -3 5 16 20 27 22 37 5z m429 -6 c-3 -3 -11 0 -18 7 -9 10 -8
11 6 5 10 -3 15 -9 12 -12z m115 14 c0 -2 -8 -10 -17 -17 -16 -13 -17 -12 -4
4 13 16 21 21 21 13z m445 -14 c-3 -3 -11 0 -18 7 -9 10 -8 11 6 5 10 -3 15
-9 12 -12z m2435 14 c0 -2 -8 -10 -17 -17 -16 -13 -17 -12 -4 4 13 16 21 21
21 13z m30 -6 c0 -5 -5 -10 -11 -10 -5 0 -7 5 -4 10 3 6 8 10 11 10 2 0 4 -4
4 -10z m754 2 c2 -4 -5 -9 -17 -9 -17 -2 -19 0 -7 7 18 12 18 12 24 2z m61
-10 c-3 -3 -11 0 -18 7 -9 10 -8 11 6 5 10 -3 15 -9 12 -12z m115 14 c0 -2 -8
-10 -17 -17 -16 -13 -17 -12 -4 4 13 16 21 21 21 13z m-3553 -19 c0 -8 -6 -14
-14 -14 -9 0 -10 4 -2 14 6 7 12 13 14 13 1 0 2 -6 2 -13z m200 0 c0 -8 -6
-14 -14 -14 -9 0 -10 4 -2 14 6 7 12 13 14 13 1 0 2 -6 2 -13z m43 9 c0 -2 -8
-10 -17 -17 -16 -13 -17 -12 -4 4 13 16 21 21 21 13z m239 -9 c8 -10 7 -14 -2
-14 -8 0 -14 6 -14 14 0 7 1 13 2 13 2 0 8 -6 14 -13z m2398 -2 c0 -8 -4 -12
-9 -9 -5 3 -6 10 -3 15 9 13 12 11 12 -6z m-3632 -4 c-9 -8 -36 -10 -30 -2 2
4 11 8 20 8 8 0 13 -3 10 -6z m395 1 c0 -5 -7 -9 -15 -9 -8 0 -12 4 -9 9 3 4
9 8 15 8 5 0 9 -4 9 -8z m165 -1 c-9 -8 -36 -10 -30 -2 2 4 11 8 20 8 8 0 13
-3 10 -6z m239 1 c2 -4 -4 -8 -14 -8 -10 0 -16 4 -14 8 3 4 9 8 14 8 5 0 11
-4 14 -8z m76 0 c0 -5 -7 -9 -15 -9 -8 0 -12 4 -9 9 3 4 9 8 15 8 5 0 9 -4 9
-8z m2570 4 c0 -2 -8 -10 -17 -17 -16 -13 -17 -12 -4 4 13 16 21 21 21 13z
m155 -6 c3 -6 -1 -7 -9 -4 -18 7 -21 14 -7 14 6 0 13 -4 16 -10z m79 2 c2 -4
-4 -8 -14 -8 -10 0 -16 4 -14 8 3 4 9 8 14 8 5 0 11 -4 14 -8z m80 0 c3 -5 -1
-9 -9 -9 -8 0 -15 4 -15 9 0 4 4 8 9 8 6 0 12 -4 15 -8z m81 -1 c-9 -8 -36
-10 -30 -2 2 4 11 8 20 8 8 0 13 -3 10 -6z m395 1 c0 -5 -7 -9 -15 -9 -8 0
-12 4 -9 9 3 4 9 8 15 8 5 0 9 -4 9 -8z m165 -1 c-9 -8 -36 -10 -30 -2 2 4 11
8 20 8 8 0 13 -3 10 -6z m-4352 -16 c-3 -9 -8 -14 -10 -11 -3 3 -2 9 2 15 9
16 15 13 8 -4z m160 0 c-3 -9 -8 -14 -10 -11 -3 3 -2 9 2 15 9 16 15 13 8 -4z
m2987 11 c0 -2 -8 -10 -17 -17 -16 -13 -17 -12 -4 4 13 16 21 21 21 13z m93
-11 c-3 -9 -8 -14 -10 -11 -3 3 -2 9 2 15 9 16 15 13 8 -4z m760 0 c-3 -9 -8
-14 -10 -11 -3 3 -2 9 2 15 9 16 15 13 8 -4z m147 12 c0 -2 -10 -12 -22 -23
l-23 -19 19 23 c18 21 26 27 26 19z m-4306 -23 c3 -8 2 -12 -4 -9 -6 3 -10 10
-10 16 0 14 7 11 14 -7z m750 8 c3 -5 -1 -9 -9 -9 -8 0 -12 4 -9 9 3 4 7 8 9
8 2 0 6 -4 9 -8z m662 -4 c3 -4 -1 -5 -10 -4 -8 1 -18 5 -22 8 -3 4 1 5 10 4
8 -1 18 -5 22 -8z m1948 -4 c3 -8 2 -12 -4 -9 -6 3 -10 10 -10 16 0 14 7 11
14 -7z m270 8 c3 -5 -1 -9 -9 -9 -8 0 -12 4 -9 9 3 4 7 8 9 8 2 0 6 -4 9 -8z
m360 -4 c-3 -4 -9 -8 -15 -8 -5 0 -9 4 -9 8 0 5 7 9 15 9 8 0 12 -4 9 -9z
m396 -13 c14 -19 14 -19 -2 -6 -10 7 -18 18 -18 24 0 6 1 8 3 6 1 -2 9 -13 17
-24z m344 14 c3 -2 -10 -5 -29 -5 -18 0 -32 3 -30 7 5 7 52 6 59 -2z m46 7 c0
-2 -8 -10 -17 -17 -16 -13 -17 -12 -4 4 13 16 21 21 21 13z m-4229 -23 c13
-16 12 -17 -3 -4 -10 7 -18 15 -18 17 0 8 8 3 21 -13z m2880 0 c13 -16 12 -17
-3 -4 -10 7 -18 15 -18 17 0 8 8 3 21 -13z m-3155 -5 c3 -4 -1 -5 -10 -4 -8 1
-18 5 -22 8 -3 4 1 5 10 4 8 -1 18 -5 22 -8z m319 2 c-3 -5 -12 -10 -18 -10
-7 0 -6 4 3 10 19 12 23 12 15 0z m33 -9 c-7 -9 -13 -18 -15 -20 -1 -2 -1 5 0
16 0 11 7 20 14 20 10 0 10 -4 1 -16z m332 15 c0 -2 -8 -10 -17 -17 -16 -13
-17 -12 -4 4 13 16 21 21 21 13z m111 -9 c-6 -8 -8 -16 -5 -19 3 -3 1 -9 -4
-12 -6 -3 -9 0 -8 6 2 16 15 38 23 38 3 0 0 -6 -6 -13z m37 -6 c-7 -9 -13 -18
-15 -20 -1 -2 -1 5 0 16 0 11 7 20 14 20 10 0 10 -4 1 -16z m239 -4 c1 -11 1
-18 0 -16 -2 2 -8 11 -15 20 -9 12 -9 16 1 16 7 0 14 -9 14 -20z m2161 4 c-7
-9 -13 -18 -15 -20 -1 -2 -1 5 0 16 0 11 7 20 14 20 10 0 10 -4 1 -16z m332
15 c0 -2 -8 -10 -17 -17 -16 -13 -17 -12 -4 4 13 16 21 21 21 13z m595 -6 c-3
-5 -12 -10 -18 -10 -7 0 -6 4 3 10 19 12 23 12 15 0z m33 -9 c-7 -9 -13 -18
-15 -20 -1 -2 -1 5 0 16 0 11 7 20 14 20 10 0 10 -4 1 -16z m-4110 0 c16 12
16 12 0 -6 -18 -19 -18 -19 -35 0 -17 18 -17 18 0 6 14 -11 20 -11 35 0z m312
-12 c0 -5 -4 -9 -8 -9 -5 0 -9 7 -9 15 0 8 4 12 9 9 4 -3 8 -9 8 -15z m119 -6
c2 -1 -5 -1 -16 0 -11 0 -20 7 -20 14 0 10 4 10 16 1 9 -7 18 -13 20 -15z
m361 6 c0 -5 -4 -9 -8 -9 -5 0 -9 7 -9 15 0 8 4 12 9 9 4 -3 8 -9 8 -15z m261
4 c13 -16 12 -17 -3 -4 -17 13 -22 21 -14 21 2 0 10 -8 17 -17z m2258 -10 c2
-1 -5 -1 -16 0 -11 0 -20 7 -20 14 0 10 4 10 16 1 9 -7 18 -13 20 -15z m523
13 c10 6 11 4 0 -7 -10 -11 -15 -10 -30 6 -15 17 -15 18 0 6 9 -7 23 -9 30 -5z
m532 -16 c-6 -6 -10 -3 -10 10 0 13 4 16 10 10 7 -7 7 -13 0 -20z m-4720 8
c-3 -4 -11 -5 -19 -1 -21 7 -19 12 4 10 11 0 18 -5 15 -9z m65 9 c-2 -1 -13
-9 -24 -17 -19 -14 -19 -14 -6 3 7 9 18 17 24 17 6 0 8 -1 6 -3z m158 -15 c0
-10 -6 -19 -13 -19 -9 0 -9 5 -1 19 7 10 13 18 14 18 1 0 1 -8 0 -18z m149
-10 c-17 -16 -18 -16 -5 5 7 12 15 20 18 17 3 -2 -3 -12 -13 -22z m111 11 c0
-10 -4 -10 -16 -1 -9 7 -18 13 -20 15 -2 1 5 1 16 0 11 0 20 -7 20 -14z m413
13 c0 -2 -8 -10 -17 -17 -16 -13 -17 -12 -4 4 13 16 21 21 21 13z m405 -5 c3
-5 2 -12 -3 -15 -5 -3 -9 1 -9 9 0 17 3 19 12 6z m2059 -3 c-3 -4 -11 -5 -19
-1 -21 7 -19 12 4 10 11 0 18 -5 15 -9z m183 -3 c0 -8 -4 -12 -9 -9 -5 3 -6
10 -3 15 9 13 12 11 12 -6z m233 11 c0 -2 -8 -10 -17 -17 -16 -13 -17 -12 -4
4 13 16 21 21 21 13z m129 1 c-2 -1 -13 -9 -24 -17 -19 -14 -19 -14 -6 3 7 9
18 17 24 17 6 0 8 -1 6 -3z m158 -15 c0 -10 -6 -19 -13 -19 -9 0 -9 5 -1 19 7
10 13 18 14 18 1 0 1 -8 0 -18z m160 0 c0 -10 -6 -19 -13 -19 -9 0 -9 5 -1 19
7 10 13 18 14 18 1 0 1 -8 0 -18z m100 1 c0 -10 -4 -10 -16 -1 -9 7 -18 13
-20 15 -2 1 5 1 16 0 11 0 20 -7 20 -14z m180 2 c0 -8 -4 -12 -9 -9 -5 3 -6
10 -3 15 9 13 12 11 12 -6z m-1077 1 c0 -2 -8 -10 -17 -17 -16 -13 -17 -12 -4
4 13 16 21 21 21 13z m41 -13 c13 -16 12 -17 -3 -4 -10 7 -18 15 -18 17 0 8 8
3 21 -13z m960 0 c13 -16 12 -17 -3 -4 -10 7 -18 15 -18 17 0 8 8 3 21 -13z
m-4361 -8 c-10 -12 -10 -18 1 -32 12 -17 12 -17 -6 -1 -15 14 -16 20 -5 32 7
9 15 16 17 16 3 0 0 -7 -7 -15z m875 -13 c-3 -3 1 -12 8 -21 11 -14 10 -14 -6
-2 -9 8 -15 16 -12 19 3 3 -1 12 -8 21 -11 14 -10 14 6 2 9 -8 15 -16 12 -19z
m95 24 c0 -2 -8 -10 -17 -17 -16 -13 -17 -12 -4 4 13 16 21 21 21 13z m350 -4
c0 -5 -7 -9 -15 -9 -8 0 -12 4 -9 9 3 4 9 8 15 8 5 0 9 -4 9 -8z m2425 -39
c-18 -17 -18 -17 -6 0 11 14 11 20 0 35 -12 16 -12 16 6 0 19 -18 19 -18 0
-35z m95 32 c-10 -12 -10 -18 1 -32 12 -17 12 -17 -6 -1 -15 14 -16 20 -5 32
7 9 15 16 17 16 3 0 0 -7 -7 -15z m-3904 -15 c0 -12 -4 -16 -9 -11 -5 5 -6 14
-3 20 10 15 12 14 12 -9z m99 11 c3 -5 2 -12 -3 -15 -5 -3 -9 1 -9 9 0 17 3
19 12 6z m461 -17 c1 -9 0 -13 -4 -10 -3 4 -7 14 -8 22 -1 9 0 13 4 10 3 -4 7
-14 8 -22z m96 11 c3 0 9 -3 13 -7 4 -3 0 -5 -9 -4 -9 1 -22 8 -29 16 -10 10
-9 11 3 4 8 -5 18 -9 22 -9z m106 -10 c-3 -3 -9 2 -12 12 -6 14 -5 15 5 6 7
-7 10 -15 7 -18z m42 21 c0 -2 -8 -10 -17 -17 -16 -13 -17 -12 -4 4 13 16 21
21 21 13z m520 0 c0 -2 -6 -9 -14 -15 -11 -9 -16 -9 -22 0 -4 7 -3 9 4 5 6 -3
13 -2 17 4 6 10 15 14 15 6z m132 -11 c3 0 9 -3 13 -7 4 -3 0 -5 -9 -4 -9 1
-22 8 -29 16 -10 10 -9 11 3 4 8 -5 18 -9 22 -9z m2063 6 c3 -5 2 -12 -3 -15
-5 -3 -9 1 -9 9 0 17 3 19 12 6z m136 -18 c17 -20 18 -23 3 -10 -11 9 -23 15
-26 12 -2 -3 -5 2 -5 10 0 19 -1 20 28 -12z m284 18 c3 -5 2 -12 -3 -15 -5 -3
-9 1 -9 9 0 17 3 19 12 6z m557 -6 c3 0 9 -3 13 -7 4 -3 0 -5 -9 -4 -9 1 -22
8 -29 16 -10 10 -9 11 3 4 8 -5 18 -9 22 -9z m106 -10 c-3 -3 -9 2 -12 12 -6
14 -5 15 5 6 7 -7 10 -15 7 -18z m-3724 -1 c3 -8 2 -12 -4 -9 -6 3 -10 10 -10
16 0 14 7 11 14 -7z m350 8 c3 -5 -1 -9 -9 -9 -8 0 -15 4 -15 9 0 4 4 8 9 8 6
0 12 -4 15 -8z m196 -17 c14 -19 14 -19 -2 -6 -10 7 -18 18 -18 24 0 6 1 8 3
6 1 -2 9 -13 17 -24z m120 15 c0 -5 -2 -10 -4 -10 -3 0 -8 5 -11 10 -3 6 -1
10 4 10 6 0 11 -4 11 -10z m1905 0 c3 -6 -1 -7 -9 -4 -18 7 -21 14 -7 14 6 0
13 -4 16 -10z m952 -5 c0 -8 -4 -12 -9 -9 -4 3 -8 9 -8 15 0 5 4 9 8 9 5 0 9
-7 9 -15z m-3776 -12 c13 -16 12 -17 -3 -4 -10 7 -18 15 -18 17 0 8 8 3 21
-13z m560 0 c13 -16 12 -17 -3 -4 -10 7 -18 15 -18 17 0 8 8 3 21 -13z m159
13 c0 -2 -8 -10 -17 -17 -16 -13 -17 -12 -4 4 13 16 21 21 21 13z m2081 -13
c13 -16 12 -17 -3 -4 -10 7 -18 15 -18 17 0 8 8 3 21 -13z m159 13 c0 -2 -8
-10 -17 -17 -16 -13 -17 -12 -4 4 13 16 21 21 21 13z m881 -13 c13 -16 12 -17
-3 -4 -10 7 -18 15 -18 17 0 8 8 3 21 -13z m-4356 -3 c-3 -5 -12 -10 -18 -10
-7 0 -6 4 3 10 19 12 23 12 15 0z m71 -6 c-1 -8 -6 -17 -12 -21 -5 -4 -6 -4
-2 1 4 5 3 14 -2 21 -7 8 -5 12 4 12 8 0 13 -6 12 -13z m41 -7 c1 -11 1 -18 0
-16 -2 2 -8 11 -15 20 -9 12 -9 16 1 16 7 0 14 -9 14 -20z m119 7 c-1 -8 -6
-17 -12 -21 -5 -4 -6 -4 -2 1 4 5 3 14 -2 21 -7 8 -5 12 4 12 8 0 13 -6 12
-13z m41 -7 c1 -11 1 -18 0 -16 -2 2 -8 11 -15 20 -9 12 -9 16 1 16 7 0 14 -9
14 -20z m759 -2 c1 -8 -1 -17 -5 -19 -4 -3 -7 6 -7 19 0 25 8 25 12 0z m444
21 c0 -2 -7 -7 -16 -10 -8 -3 -12 -2 -9 4 6 10 25 14 25 6z m1636 -12 c-1 -8
-6 -17 -12 -21 -5 -4 -6 -4 -2 1 4 5 3 14 -2 21 -7 8 -5 12 4 12 8 0 13 -6 12
-13z m41 -7 c1 -11 1 -18 0 -16 -2 2 -8 11 -15 20 -9 12 -9 16 1 16 7 0 14 -9
14 -20z m688 13 c-3 -5 -12 -10 -18 -10 -7 0 -6 4 3 10 19 12 23 12 15 0z m71
-6 c-1 -8 -6 -17 -12 -21 -5 -4 -6 -4 -2 1 4 5 3 14 -2 21 -7 8 -5 12 4 12 8
0 13 -6 12 -13z m41 -7 c1 -11 1 -18 0 -16 -2 2 -8 11 -15 20 -9 12 -9 16 1
16 7 0 14 -9 14 -20z m119 7 c-1 -8 -6 -17 -12 -21 -5 -4 -6 -4 -2 1 4 5 3 14
-2 21 -7 8 -5 12 4 12 8 0 13 -6 12 -13z m41 -7 c1 -11 1 -18 0 -16 -2 2 -8
11 -15 20 -9 12 -9 16 1 16 7 0 14 -9 14 -20z m-3781 -7 c0 -12 -4 -16 -9 -11
-5 5 -6 14 -3 20 10 15 12 14 12 -9z m244 16 c0 -2 -8 -10 -17 -17 -16 -13
-17 -12 -4 4 13 16 21 21 21 13z m68 -5 c16 12 16 12 0 -6 -18 -19 -18 -19
-35 0 -17 18 -17 18 0 6 14 -11 20 -11 35 0z m252 5 c0 -2 -8 -10 -17 -17 -16
-13 -17 -12 -4 4 13 16 21 21 21 13z m53 -9 c4 3 7 1 7 -5 0 -17 -16 -15 -31
6 -12 15 -12 16 2 5 9 -7 19 -10 22 -6z m187 9 c0 -2 -8 -10 -17 -17 -16 -13
-17 -12 -4 4 13 16 21 21 21 13z m54 -25 c-2 -3 -12 3 -22 13 -16 17 -16 18 5
5 12 -7 20 -15 17 -18z m186 25 c0 -2 -8 -10 -17 -17 -16 -13 -17 -12 -4 4 13
16 21 21 21 13z m45 -16 c10 -11 16 -20 13 -20 -3 0 -13 9 -23 20 -10 11 -16
20 -13 20 3 0 13 -9 23 -20z m1572 5 c0 -8 -4 -12 -9 -9 -5 3 -6 10 -3 15 9
13 12 11 12 -6z m383 11 c0 -2 -8 -10 -17 -17 -16 -13 -17 -12 -4 4 13 16 21
21 21 13z m54 -25 c-2 -3 -12 3 -22 13 -16 17 -16 18 5 5 12 -7 20 -15 17 -18z
m186 25 c0 -2 -8 -10 -17 -17 -16 -13 -17 -12 -4 4 13 16 21 21 21 13z m54
-25 c-2 -3 -12 3 -22 13 -16 17 -16 18 5 5 12 -7 20 -15 17 -18z m746 25 c0
-2 -8 -10 -17 -17 -16 -13 -17 -12 -4 4 13 16 21 21 21 13z m68 -5 c16 12 16
12 0 -6 -18 -19 -18 -19 -35 0 -17 18 -17 18 0 6 14 -11 20 -11 35 0z m-1297
-24 c-10 -9 -11 -8 -5 6 3 10 9 15 12 12 3 -3 0 -11 -7 -18z"/>
<path d="M2280 8209 c0 -5 5 -7 10 -4 6 3 10 8 10 11 0 2 -4 4 -10 4 -5 0 -10
-5 -10 -11z"/>
</g>
</svg>
